<svg xmlns="http://www.w3.org/2000/svg" width="15.358" height="16" viewBox="0 0 15.358 16">
  <g id="Group_531" data-name="Group 531" transform="translate(-148 -4201.001)">
    <path id="Path_412" data-name="Path 412" d="M16.59,20H2.768a.768.768,0,1,0,0,1.536H16.59a.768.768,0,1,0,0-1.536Z" transform="translate(146 4195.465)" fill-rule="evenodd"/>
    <path id="Path_413" data-name="Path 413" d="M4,10.768v5.375a.768.768,0,0,0,1.536,0V10.768a.768.768,0,0,0-1.536,0Z" transform="translate(145.535 4197.786)" fill-rule="evenodd"/>
    <path id="Path_414" data-name="Path 414" d="M9,10.768v5.375a.768.768,0,0,0,1.536,0V10.768a.768.768,0,0,0-1.536,0Z" transform="translate(144.375 4197.786)" fill-rule="evenodd"/>
    <path id="Path_415" data-name="Path 415" d="M14,10.768v5.375a.768.768,0,0,0,1.536,0V10.768a.768.768,0,0,0-1.536,0Z" transform="translate(143.215 4197.786)" fill-rule="evenodd"/>
    <path id="Path_416" data-name="Path 416" d="M19,10.768v5.375a.768.768,0,0,0,1.536,0V10.768a.768.768,0,0,0-1.536,0Z" transform="translate(142.055 4197.786)" fill-rule="evenodd"/>
    <path id="Path_417" data-name="Path 417" d="M3.451,7.181H16.03a1.152,1.152,0,0,0,.622-2.142L10.508,1.384a1.536,1.536,0,0,0-1.582,0l-6.1,3.655a1.152,1.152,0,0,0,.622,2.142ZM9.74,2.7l4.907,2.941H4.833Z" transform="translate(145.939 4199.836)" fill-rule="evenodd"/>
  </g>
</svg>
