<svg xmlns="http://www.w3.org/2000/svg" width="18.7" height="16.3" viewBox="0 0 18.7 16.3">
  <g id="noun_Teacher_3325349" transform="translate(-282.1 -288.85)">
    <g id="Group_548" data-name="Group 548">
      <path id="Path_2868" data-name="Path 2868" d="M12.808,15.163l-3.9,4.48a2.1,2.1,0,0,0-.96-1.165,2.72,2.72,0,1,0-3.622,0,2.086,2.086,0,0,0-1.072,1.8v2.24a.48.48,0,0,0,.48.48h4.8a.48.48,0,0,0,.48-.48V20.955l.042-.038,4.48-5.12a.483.483,0,0,0-.723-.64ZM6.13,14.68a1.76,1.76,0,1,1-1.76,1.76,1.76,1.76,0,0,1,1.76-1.76Zm1.92,7.36H4.21V20.28a1.12,1.12,0,0,1,1.12-1.12h1.6a1.12,1.12,0,0,1,1.12,1.12Zm13.6-4.64a.48.48,0,0,1-.48.48H14.45a.48.48,0,1,1,0-.96h4.96V7.96H7.25v4a.48.48,0,1,1-.96,0v-4h-.8a.48.48,0,0,1,0-.96H21.17a.48.48,0,0,1,0,.96h-.8v8.96h.8A.48.48,0,0,1,21.65,17.4ZM9.81,10.36a.48.48,0,0,1,.48-.48h3.52a.48.48,0,1,1,0,.96H10.29A.48.48,0,0,1,9.81,10.36Zm0,2.56a.48.48,0,0,1,.48-.48h5.76a.48.48,0,1,1,0,.96H10.29A.48.48,0,0,1,9.81,12.92Z" transform="translate(279 282)" stroke="#000" stroke-width="0.3"/>
    </g>
  </g>
</svg>
