<svg xmlns="http://www.w3.org/2000/svg" width="13.17" height="16" viewBox="0 0 13.17 16">
  <g id="noun_Check_1243618" transform="translate(-12.44 -4.37)">
    <path id="Path_2869" data-name="Path 2869" d="M23.156,5.413H20.794a2.021,2.021,0,0,0-3.538,0H14.895A2.455,2.455,0,0,0,12.44,7.867V17.915a2.455,2.455,0,0,0,2.455,2.455h8.261a2.455,2.455,0,0,0,2.455-2.455V7.867A2.455,2.455,0,0,0,23.156,5.413Zm-5.421,1.4a.7.7,0,0,0,.685-.554.621.621,0,0,1,1.212,0,.7.7,0,0,0,.685.554h.417v.622H17.316V6.815Zm6.473,11.1a1.052,1.052,0,0,1-1.052,1.052H14.895a1.052,1.052,0,0,1-1.052-1.052V7.867a1.052,1.052,0,0,1,1.052-1.052h1.019v.8A1.227,1.227,0,0,0,17.14,8.84H20.91a1.227,1.227,0,0,0,1.227-1.227v-.8h1.019a1.052,1.052,0,0,1,1.052,1.052Z"/>
    <path id="Path_2870" data-name="Path 2870" d="M38.349,44.433l-2.228,2.228L35.1,45.645a.7.7,0,1,0-.991,1l1.513,1.513a.7.7,0,0,0,.992,0l2.723-2.73a.7.7,0,0,0-.992-.992Z" transform="translate(-17.702 -32.87)"/>
  </g>
</svg>
