<svg xmlns="http://www.w3.org/2000/svg" width="17.882" height="16" viewBox="0 0 17.882 16">
  <path id="Path_2808" data-name="Path 2808" d="M12.706,18.824H23.647a2.117,2.117,0,0,0,2,1.412,2.14,2.14,0,0,0,2-1.412h1.529a.706.706,0,0,0,0-1.412H27.647a2.117,2.117,0,0,0-2-1.412,2.14,2.14,0,0,0-2,1.412H12.706a.706.706,0,1,0,0,1.412Zm12.941-1.882a1.176,1.176,0,1,1-1.176,1.176A1.165,1.165,0,0,1,25.647,16.941Zm3.529,6.353H18.235a2.117,2.117,0,0,0-2-1.412,2.14,2.14,0,0,0-2,1.412H12.706a.706.706,0,1,0,0,1.412h1.529a2.117,2.117,0,0,0,2,1.412,2.14,2.14,0,0,0,2-1.412H29.176a.706.706,0,0,0,0-1.412ZM16.235,25.176A1.176,1.176,0,1,1,17.412,24,1.165,1.165,0,0,1,16.235,25.176Zm12.941,4H22.941a2.117,2.117,0,0,0-2-1.412,2.14,2.14,0,0,0-2,1.412H12.706a.706.706,0,1,0,0,1.412h6.235a2.117,2.117,0,0,0,2,1.412,2.14,2.14,0,0,0,2-1.412h6.235a.706.706,0,0,0,0-1.412Zm-8.235,1.882a1.176,1.176,0,1,1,1.176-1.176A1.165,1.165,0,0,1,20.941,31.059Z" transform="translate(-12 -16)"/>
</svg>
