<svg xmlns="http://www.w3.org/2000/svg" width="16.99" height="12" viewBox="0 0 16.99 12">
  <g id="noun_Check_Mark_1077512" data-name="noun_Check Mark_1077512" transform="translate(-9.245 -124.959)">
    <path id="Path_2849" data-name="Path 2849" d="M26.5,40.957a1.222,1.222,0,0,1-.887-.486c-.372-.372-.744-.772-1.116-1.144-.429-.429-.858-.887-1.287-1.316-.515-.515-1.03-1.058-1.545-1.573-.4-.4-.8-.772-1.173-1.2a1.076,1.076,0,0,1,.114-1.488,1.05,1.05,0,0,1,1.545.172c.343.4.715.744,1.087,1.116.486.486.944.973,1.43,1.459.458.458.887.915,1.344,1.373l.372.372c.086.114.172.143.286,0,.458-.486.915-.915,1.373-1.4.458-.458.915-.944,1.373-1.4.6-.6,1.2-1.2,1.8-1.831.572-.572,1.116-1.173,1.688-1.745l1.631-1.631c.315-.315.629-.658.944-.973a1.015,1.015,0,0,1,1.373-.057,1.088,1.088,0,0,1,.343,1.144,1.356,1.356,0,0,1-.429.6c-.429.458-.858.887-1.287,1.316l-1.116,1.116c-.458.458-.915.944-1.373,1.4-.572.572-1.144,1.144-1.688,1.716l-2.317,2.4c-.572.572-1.144,1.173-1.716,1.745A.956.956,0,0,1,26.5,40.957Z" transform="translate(-11 96)"/>
  </g>
</svg>
