<svg xmlns="http://www.w3.org/2000/svg" width="16" height="11.999" viewBox="0 0 16 11.999">
  <g id="Group_529" data-name="Group 529" transform="translate(-211 -4177)">
    <path id="Path_123" data-name="Path 123" d="M.686,55.271H15.314a.72.72,0,0,0,0-1.438H.686a.72.72,0,0,0,0,1.438Z" transform="translate(211 4123.167)"/>
    <path id="Path_124" data-name="Path 124" d="M.686,182.771H15.314a.72.72,0,0,0,0-1.438H.686a.72.72,0,0,0,0,1.438Z" transform="translate(211 4000.947)"/>
    <path id="Path_125" data-name="Path 125" d="M.686,310.271H15.314a.72.72,0,0,0,0-1.438H.686a.72.72,0,0,0,0,1.438Z" transform="translate(211 3878.728)"/>
  </g>
</svg>
