<svg xmlns="http://www.w3.org/2000/svg" width="28" height="28" viewBox="0 0 28 28">
  <g id="Group_539" data-name="Group 539" transform="translate(-184 -4172)">
    <circle id="Ellipse_221" data-name="Ellipse 221" cx="14" cy="14" r="14" transform="translate(184 4172)" fill="#dbdceb"/>
    <g id="options-gear" transform="translate(189.25 4177.25)">
      <g id="Group_35" data-name="Group 35" transform="translate(0 0)">
        <path id="Path_59" data-name="Path 59" d="M1.25,11.627,2.068,12a.72.72,0,0,1,.375.9l-.318.841a2.018,2.018,0,0,0,.239,1.9,2.052,2.052,0,0,0,1.7.9,2.073,2.073,0,0,0,.739-.136l.841-.318a.611.611,0,0,1,.25-.045.707.707,0,0,1,.648.42l.375.818a2.071,2.071,0,0,0,3.773,0l.375-.818a.714.714,0,0,1,.648-.42.648.648,0,0,1,.25.045l.841.33a2.087,2.087,0,0,0,.739.148h0a2.124,2.124,0,0,0,1.7-.909,2.077,2.077,0,0,0,.239-1.909L15.17,12.9a.72.72,0,0,1,.375-.9l.818-.375a2.071,2.071,0,0,0,0-3.773l-.818-.375a.72.72,0,0,1-.375-.9l.318-.841a2.018,2.018,0,0,0-.239-1.9,2.052,2.052,0,0,0-1.7-.9,2.073,2.073,0,0,0-.739.136l-.841.318a.612.612,0,0,1-.25.045.707.707,0,0,1-.648-.42l-.375-.818A2.055,2.055,0,0,0,8.807.991a2.114,2.114,0,0,0-1.92,1.227l-.375.818a.714.714,0,0,1-.648.42.648.648,0,0,1-.25-.045l-.841-.318a2.073,2.073,0,0,0-.739-.136,2.112,2.112,0,0,0-1.7.9,2.058,2.058,0,0,0-.239,1.9l.318.841a.72.72,0,0,1-.375.9l-.818.375a2.051,2.051,0,0,0,.034,3.761Zm.557-2.534.818-.375A2.075,2.075,0,0,0,3.7,6.1l-.318-.841a.678.678,0,0,1,.08-.648.694.694,0,0,1,.841-.261l.841.318a2.013,2.013,0,0,0,.727.136h0A2.086,2.086,0,0,0,7.761,3.593l.375-.818a.7.7,0,0,1,.648-.42.707.707,0,0,1,.648.42l.375.818a2.086,2.086,0,0,0,1.886,1.216,2.013,2.013,0,0,0,.727-.136l.841-.318a.728.728,0,0,1,.841.261.678.678,0,0,1,.08.648l-.318.841a2.086,2.086,0,0,0,1.08,2.614l.818.375a.7.7,0,0,1,.42.648.707.707,0,0,1-.42.648l-.818.375a2.075,2.075,0,0,0-1.08,2.614l.318.841a.678.678,0,0,1-.08.648.694.694,0,0,1-.841.261l-.841-.318a2.013,2.013,0,0,0-.727-.136,2.086,2.086,0,0,0-1.886,1.216l-.375.818a.7.7,0,0,1-.648.42.707.707,0,0,1-.648-.42l-.375-.818a2.086,2.086,0,0,0-1.886-1.216,2.013,2.013,0,0,0-.727.136l-.841.318a.728.728,0,0,1-.841-.261.678.678,0,0,1-.08-.648l.318-.841a2.086,2.086,0,0,0-1.08-2.614l-.818-.375a.7.7,0,0,1-.42-.648A.707.707,0,0,1,1.807,9.093Z" transform="translate(0 -0.991)" fill="#474974"/>
        <path id="Path_60" data-name="Path 60" d="M147.611,150.581a2.545,2.545,0,1,0-2.545-2.545A2.552,2.552,0,0,0,147.611,150.581Zm0-3.915a1.37,1.37,0,1,1-1.37,1.37A1.374,1.374,0,0,1,147.611,146.666Z" transform="translate(-138.839 -139.286)" fill="#474974"/>
      </g>
    </g>
  </g>
</svg>
