<svg xmlns="http://www.w3.org/2000/svg" width="16.2" height="16.2" viewBox="0 0 16.2 16.2">
  <g id="noun_Time_2696696" transform="translate(46.76 50.571)">
    <g id="noun_Time_2095259" transform="translate(-46.66 -50.471)">
      <path id="Path_2853" data-name="Path 2853" d="M19.338,11.33a8,8,0,1,0,8,8,8,8,0,0,0-8-8Zm0,14.738a6.738,6.738,0,1,1,6.74-6.739A6.738,6.738,0,0,1,19.338,26.068Z" transform="translate(-11.34 -11.33)" stroke="#000" stroke-width="0.2"/>
      <path id="Path_2854" data-name="Path 2854" d="M37.622,32.06a.626.626,0,0,0-.626.626V35.97l-2.34,2.389a.626.626,0,1,0,.895.872l2.517-2.558a.626.626,0,0,0,.179-.439V32.686a.626.626,0,0,0-.624-.626Z" transform="translate(-29.658 -27.742)" stroke="#000" stroke-width="0.2"/>
    </g>
  </g>
</svg>
