<svg xmlns="http://www.w3.org/2000/svg" xmlns:xlink="http://www.w3.org/1999/xlink" width="348.5" height="496.823" viewBox="0 0 348.5 496.823">
  <defs>
    <linearGradient id="linear-gradient" y1="0.5" x2="1.001" y2="0.5" gradientUnits="objectBoundingBox">
      <stop offset="0" stop-color="gray" stop-opacity="0.251"/>
      <stop offset="0.54" stop-color="gray" stop-opacity="0.122"/>
      <stop offset="1" stop-color="gray" stop-opacity="0.102"/>
    </linearGradient>
    <linearGradient id="linear-gradient-2" x1="-1.02" y1="1" x2="-1.02" y2="0" xlink:href="#linear-gradient"/>
  </defs>
  <g id="Group_508" data-name="Group 508" transform="translate(-12.002 -143.677)">
    <path id="Subtraction_8" data-name="Subtraction 8" d="M-4703.5-11452.561h-326.952a79.337,79.337,0,0,1-1.522-27.961,118.944,118.944,0,0,1,10.93-36.812,223.11,223.11,0,0,1,13.3-23.932c4.883-7.76,10.186-15.482,15.313-22.952l.051-.074.112-.163c4.277-6.227,8.7-12.666,12.88-19.14,21.972-33.924,54.06-99.02,22.1-153.823a198.219,198.219,0,0,0-11.23-16.549l-.03-.042-.012-.015,0-.009-.024-.033,0,0c-5.451-7.479-11.086-15.212-14.9-23.594-4.308-9.485-6.532-20.129-6.8-32.537-.258-11.845,1.292-23.621,2.843-33.579,1.3-8.38,2.733-15.656,4.38-22.245a140.273,140.273,0,0,1,7.165-21.639,93.314,93.314,0,0,1,11.236-19.562,76.539,76.539,0,0,1,7.551-8.543,72.948,72.948,0,0,1,9.054-7.47c14.989-10.458,34.734-15.761,58.686-15.761a211.843,211.843,0,0,1,41.406,4.471c10.789,2.169,21.619,4.849,33.109,8.192,10.266,2.986,20.823,6.434,32.273,10.537,21.287,7.625,42.509,16.42,63.032,24.926l.024.01.015.006c5.084,2.108,10.543,4.37,16.009,6.616v431.682Z" transform="translate(5064 12093.061)" fill="#6c63ff" opacity="0.1"/>
    <path id="Subtraction_9" data-name="Subtraction 9" d="M-3894.5-11298.5h-348.059a92.87,92.87,0,0,1,1.846-29.138,132.519,132.519,0,0,1,9.714-28.23,232.583,232.583,0,0,1,13.857-24.934c5.093-8.093,10.625-16.149,15.975-23.941l.034-.049.051-.075.027-.039c4.477-6.521,9.106-13.264,13.467-20.018,22.9-35.352,56.347-103.188,23.038-160.313a206.65,206.65,0,0,0-11.743-17.3l-.008-.015c-5.688-7.8-11.57-15.869-15.553-24.625-4.488-9.875-6.807-20.968-7.089-33.914-.266-12.315,1.35-24.6,2.966-35,1.363-8.769,2.857-16.351,4.566-23.181a146.129,146.129,0,0,1,7.463-22.553,97.168,97.168,0,0,1,11.712-20.392,79.219,79.219,0,0,1,7.868-8.9,75.965,75.965,0,0,1,9.438-7.784,80.025,80.025,0,0,1,13.708-7.646,95.536,95.536,0,0,1,15-5.081,133.663,133.663,0,0,1,32.451-3.7,220.671,220.671,0,0,1,43.154,4.659c11.262,2.266,22.552,5.06,34.516,8.542,10.695,3.109,21.7,6.7,33.644,10.984,22.232,7.964,44.354,17.134,65.748,26l.033.015c6.428,2.663,14.428,5.979,22.175,9.139v437.482Z" transform="translate(4255.002 11939)" fill="#6c63ff" opacity="0.1"/>
    <g id="undraw_email_campaign_qa8y" transform="translate(26.999 187.994)">
      <ellipse id="Ellipse_212" data-name="Ellipse 212" cx="53.54" cy="8.79" rx="53.54" ry="8.79" transform="translate(199.001 244.032)" fill="#6c63ff" opacity="0.1"/>
      <rect id="Rectangle_733" data-name="Rectangle 733" width="17.39" height="8.532" transform="translate(69.841 133.69)" fill="#3f3d56" opacity="0.1"/>
      <rect id="Rectangle_734" data-name="Rectangle 734" width="17.39" height="8.532" transform="translate(69.841 157.642)" fill="#3f3d56" opacity="0.1"/>
      <rect id="Rectangle_735" data-name="Rectangle 735" width="17.39" height="8.532" transform="translate(69.841 181.594)" fill="#3f3d56" opacity="0.1"/>
      <rect id="Rectangle_736" data-name="Rectangle 736" width="17.39" height="8.532" transform="translate(69.841 205.547)" fill="#3f3d56" opacity="0.1"/>
      <path id="Path_2160" data-name="Path 2160" d="M251.022,394.271c.484-.309.292-1.136-.208-1.419a2.439,2.439,0,0,0-1.681-.081.672.672,0,0,0-.36-.723v-.124a.9.9,0,0,0-.195-1.274,2.568,2.568,0,0,0-1.567-.276,2.078,2.078,0,0,0-.672-1.772.555.555,0,0,0-.363-.175c-.313,0-.417.42-.44.733a14.476,14.476,0,0,1-.4,2.424l-10.189,17.067c-1.136,1.641,2.394-3.268,1.257-1.627a14.7,14.7,0,0,1-2.017,2.494,9.912,9.912,0,0,1-2.269,1.516,2.67,2.67,0,0,1-1.55-.437,6.271,6.271,0,0,1-1.489-1.476,29.124,29.124,0,0,1-2.4-3.573,4.485,4.485,0,0,1-.551-1.277,11.736,11.736,0,0,0-.282-2.138,3.319,3.319,0,0,0-.437-.7l-.7-.938a.167.167,0,0,1,0-.04c-.081-1.388-1.2-2.454-2.252-3.362a6.115,6.115,0,0,0-3.026-1.745c-.632-.081-1.277.04-1.909-.04-.514-.064-1.008-.259-1.513-.336a6.649,6.649,0,0,0-1.486-.03l-.212-.192a5.9,5.9,0,0,0,2.656-2.232c.487-.787.75-1.681,1.2-2.5.548-.985,1.345-1.8,1.98-2.743a10.142,10.142,0,0,0,1.143-7.732,18.588,18.588,0,0,0-3.624-7.1c-3.15-4.074-8.435-5.587-13.41-4.787-.336.05-.672.114-.992.185a12.565,12.565,0,0,0-2.437.78,6.182,6.182,0,0,0-2.659,2.074,4.5,4.5,0,0,0-.464.861,4.914,4.914,0,0,0-.225.706,7.3,7.3,0,0,0-.121,2.219c.02.252.047.508.077.76a2.933,2.933,0,0,0,.047.38c.034.252.071.508.1.76.054.38.1.76.141,1.133a7.084,7.084,0,0,1,.04.8v.2a3.147,3.147,0,0,1-.087.588,3.023,3.023,0,0,1-.1.309,3.9,3.9,0,0,1-.464.854,11.42,11.42,0,0,1-.83,1.008l-.286.336-.282.336a11.733,11.733,0,0,0-1.025,1.388,6.6,6.6,0,0,0-.407.76,5.568,5.568,0,0,0-.229.612,4.405,4.405,0,0,0-.178.851c0,.074-.017.145-.02.218a3.67,3.67,0,0,0,0,.43,2.966,2.966,0,0,0,.047.424,3.25,3.25,0,0,0,.249.817c0,.037.037.074.054.108s.037.071.054.108.071.145.1.215a1.564,1.564,0,0,1,.108.336v.118a.773.773,0,0,1,0,.124,1.345,1.345,0,0,1-.484.837c-.064.06-.134.118-.2.175l-.1.084-.212.168-.205.165a4.034,4.034,0,0,0-.494.494,18.218,18.218,0,0,0-5.493.538,7.5,7.5,0,0,1-1.973.356.982.982,0,0,1-.854-.36,1.291,1.291,0,0,1-.087-.783,6.76,6.76,0,0,0-.524-3.217,1.809,1.809,0,0,0-.528-.766.746.746,0,0,0-.871-.047,8.2,8.2,0,0,1-.225,5.473,18.056,18.056,0,0,1-1.264,2.373c-.75,1.274-1.17,2.733-1.835,4.054.746,2.525.582,5.221.972,7.823a36.153,36.153,0,0,0,2.061,7.06,11.352,11.352,0,0,0,2.73,4.77,2.5,2.5,0,0,0,1.681.733,2.969,2.969,0,0,0,1.321-.5,5.147,5.147,0,0,0,1.113-.82,2.537,2.537,0,0,0,.336-.437,1.647,1.647,0,0,0,.245.619c.8-1.725,1.681-3.412,2.622-5.063a4.341,4.341,0,0,0,.787-.538c.017.057.03.118.044.178-.04.158-.081.319-.124.477s-.091.3-.138.45-.067.222-.1.336-.087.262-.134.393l-.161.427c-.04.1-.077.2-.121.3-.1.245-.205.491-.319.733a2.211,2.211,0,0,0,.279.114l.064.02a2.425,2.425,0,0,0,.259.064h.094l.195.02h.306a3.087,3.087,0,0,0,.693-.121c.044.175.084.353.128.528a18.8,18.8,0,0,1,.632,3.6,28.251,28.251,0,0,0,.084,4.135c.138.7.41,1.378.508,2.091a8.691,8.691,0,0,1-.037,2.017l-.457,4.834a4.131,4.131,0,0,1-.413,1.7c-.229.393-.6.844-.366,1.234a8.014,8.014,0,0,1,1.153-.222c-.141.514-.269,1.029-.39,1.546a2.72,2.72,0,0,0-.091,1.193,7.575,7.575,0,0,1,.336,1.093,3.525,3.525,0,0,1-.578,1.657c-.578,1.4.037,2.975.649,4.37l1.809,4.1q.74,1.681,1.486,3.362c.44,1.009.884,2.017,1.308,3.026a98,98,0,0,1,4.733,14.19,1.661,1.661,0,0,0,.242.615c.252.336.706.434,1.076.639a2.006,2.006,0,0,1,.222,3.2c.212,2.468-1.637,4.851-2.589,7.137-2.192,5.254-1.8,11.174-2.548,16.809l.851-.5a1.119,1.119,0,0,1,.276.182c-.02.1-.04.208-.067.316a5,5,0,0,1-.548,1.365,7.316,7.316,0,0,0-1.365,2.589,15.814,15.814,0,0,0,.108,1.775v.165c-.074-.074-.188-.067-.363.067a2.159,2.159,0,0,0-.535,1.009c-.148.42-.266.85-.383,1.281l-.413,1.52a17.625,17.625,0,0,1-.887,2.669,11.223,11.223,0,0,0-.787,1.815,5.611,5.611,0,0,0-.138,1.556,4.734,4.734,0,0,0,.215,1.472,3.668,3.668,0,0,0,2.148,2.041,10.086,10.086,0,0,0,2.985.561,2.549,2.549,0,0,0,.783-.02,2.151,2.151,0,0,0,.763-.4,6.325,6.325,0,0,0,2.222-4.606,6.666,6.666,0,0,0-.188-1.045c.084-1.866-.188-3.742-.044-5.6.027.212.061.42.091.632q.168,1.042.336,2.088a.441.441,0,0,0-.114-.2,4.811,4.811,0,0,0-.121,2.394,14.009,14.009,0,0,0,.672,2.32l.447,1.247a2.236,2.236,0,0,0,2.088,1.762,16.915,16.915,0,0,0,3.765.642.864.864,0,0,0,.5-.091,2.868,2.868,0,0,0,.222-.188,2.042,2.042,0,0,1,.363-.212,2.374,2.374,0,0,0,1.153-1.365,2.162,2.162,0,0,0-.212-1.768,4.057,4.057,0,0,0-.511-.619l-2.242-2.377a12.86,12.86,0,0,0-1.1-1.163.41.41,0,0,0-.36-.121,11.551,11.551,0,0,1-.424-4.969c.03-.5.3-1.533.413-2.38a3.789,3.789,0,0,0,1.19-.642,1.822,1.822,0,0,0,.672-1.009,173.19,173.19,0,0,1,4.673-17.02c.168-.555.336-1.113.5-1.681l.208-.713c.054-.195.114-.39.168-.585.094-.336.185-.656.272-.985.027-.087.05-.178.074-.266a.32.32,0,0,0,0-.054c.111-.4.215-.807.319-1.21l.121-.464c.131-.514.256-1.032.38-1.546.017-.071.034-.145.047-.219a.948.948,0,0,0-.037-.548h0a.9.9,0,0,0-.131-.188c-.034-.04-.074-.084-.114-.124l-.124-.138a1.241,1.241,0,0,1-.229-.43v-.471c0-.155-.02-.336-.03-.5a5.112,5.112,0,0,1,.148-.652c.037-.128.081-.255.121-.383s.1-.336.151-.477a1.193,1.193,0,0,0,.3-.81c.2-.508.424-1.008.672-1.493a4.541,4.541,0,0,0,.6-1.614,6.45,6.45,0,0,0-.195-1.533c-.336-2.131.652-4.212,1.385-6.239a27.7,27.7,0,0,0,1.22-4.579,9.7,9.7,0,0,1,1.009-3.493,5.243,5.243,0,0,0,.538-.928,3.728,3.728,0,0,0,.145-1.059,11.612,11.612,0,0,1,1.032-4.192,2.468,2.468,0,0,0,.269-.814.332.332,0,0,0,0-.057v-.081l.168-.024A22.3,22.3,0,0,0,226,438.9a8.63,8.63,0,0,0-2.884-5.449h.034a1.771,1.771,0,0,0,.824-1.6,3.113,3.113,0,0,0-1.16-2.441,1.187,1.187,0,0,1-.393-.4,1.227,1.227,0,0,1-.047-.531,2.71,2.71,0,0,0-1.681-2.508.619.619,0,0,1-.272-.158.672.672,0,0,1-.067-.477,2.935,2.935,0,0,0-1.415-2.689,4.609,4.609,0,0,0,.061-2.128,1.588,1.588,0,0,0-1.556-1.21c.578-1.577-.242-3.331-.024-5,.094-.713.38-1.4.417-2.118a4.36,4.36,0,0,1,.188-1.93c.319-.585,1.072-1.009.877-1.627-.084-.269-.336-.45-.444-.713s.336-.672.582-.511c.111-.084.222-.175.336-.266a5.5,5.5,0,0,0,.2.985c.158.538.407,1.045.571,1.58a13.092,13.092,0,0,0,.746,2.451c.672,1.2,2.041,1.788,2.982,2.784.551.582.945,1.3,1.513,1.866a8.371,8.371,0,0,0,1.412,1.059l3.026,1.963a3.43,3.43,0,0,0,1.035.514,1.768,1.768,0,0,0,2.084-1.5,1.983,1.983,0,0,1-.746-.461.277.277,0,0,0,.128-.02,4.787,4.787,0,0,0,1.95-1.035,26.415,26.415,0,0,0,5.224-6.37c1.587-2.417,9.231-8.814,9.231-8.814v-2.6a9.362,9.362,0,0,0,2.545-2.165,2.807,2.807,0,0,0,.639-1.657,1.459,1.459,0,0,0-.891-1.459Zm-63.557,6.216q-.222,1.412-.541,2.81a27.312,27.312,0,0,1-.9,3.173c-.04.108-.081.219-.118.336-.111-.2-.219-.4-.316-.608-.249-.514-.447-1.052-.645-1.587l-1.264-3.412a1.574,1.574,0,0,1-.084-1.361,1.526,1.526,0,0,1,.723-.541,14.421,14.421,0,0,1,2.773-.941,8.136,8.136,0,0,0,.894-.235A13.335,13.335,0,0,0,187.466,400.486Zm1.4-4.256a.514.514,0,0,1,0-.494,1.093,1.093,0,0,1,.336-.229.674.674,0,0,0,.094-.067Zm2.622-3.7a6.533,6.533,0,0,0-1.009,1.035,10.617,10.617,0,0,0-.867,1.345.975.975,0,0,0-.36-.992,2.049,2.049,0,0,1-.336-.222.689.689,0,0,1,.138-.965,2.017,2.017,0,0,1,1.009-.336l1.509-.222c-.02.1-.05.222-.084.34Zm14.166,109.79a5.518,5.518,0,0,0-.087-1.345c.188,0,.373,0,.558-.017Z" transform="translate(-128.355 -239.183)" fill="url(#linear-gradient)"/>
      <path id="Path_2161" data-name="Path 2161" d="M221.671,370.523c-2.626.42-5.547,1.432-6.552,3.893-.756,1.859-.171,3.953.024,5.954a4.552,4.552,0,0,1-.057,1.583,5.55,5.55,0,0,1-1.388,2.178,11.58,11.58,0,0,0-2,2.8,4.107,4.107,0,0,0-.134,3.362,2.471,2.471,0,0,1,.336.881c.03.672-.672,1.116-1.21,1.553-1.97,1.63-1.886,4.6-1.9,7.164a36.226,36.226,0,0,1-3.426,15.128,4.626,4.626,0,0,0,5.177-.672,17.29,17.29,0,0,1-1.177,3.389c1.681.807,3.678-.518,4.515-2.172s.935-3.577,1.53-5.332,1.651-3.281,2.1-5.043a4.648,4.648,0,0,1,.6-1.681,4.4,4.4,0,0,1,1.049-.894,10.233,10.233,0,0,0,3.7-5.043,20.484,20.484,0,0,0,6.206.716,6.889,6.889,0,0,0,5.3-2.911c.487-.787.75-1.681,1.2-2.494.548-.985,1.345-1.8,1.98-2.74a10.134,10.134,0,0,0,1.14-7.732,18.553,18.553,0,0,0-3.621-7.093C231.924,371.235,226.643,369.723,221.671,370.523Z" transform="translate(-145.914 -241.082)" fill="#303d5c"/>
      <path id="Path_2162" data-name="Path 2162" d="M201.169,460.024q-.222,1.412-.538,2.8a27.072,27.072,0,0,1-.9,3.17,3.025,3.025,0,0,0-.286,1.459,2.622,2.622,0,0,0,.353.867c1.2,2.128,2.814,4.185,2.952,6.626a3.5,3.5,0,0,0,.336,1.768q1.392-2.985,3.066-5.826c1.167-1.983,2.467-3.984,2.8-6.26a11.852,11.852,0,0,0-.044-3.217,6.968,6.968,0,0,0-1.153-3.382c-.793-1.039-2.968-2.6-4.37-2.279C201.72,456.145,201.377,458.69,201.169,460.024Z" transform="translate(-141.981 -297.77)" fill="#02b9b5"/>
      <path id="Path_2163" data-name="Path 2163" d="M330.3,456.242a10.969,10.969,0,0,0,6.431-4.959l3.7-5.335a9.627,9.627,0,0,0,1.963-4.121,13.578,13.578,0,0,0,3.7-8.377c.027-.313.131-.723.444-.729a.558.558,0,0,1,.363.171,2.078,2.078,0,0,1,.672,1.772,2.451,2.451,0,0,1,1.563.272c.437.313.555,1.1.084,1.345a.672.672,0,0,1,.471.763,2.437,2.437,0,0,1,1.681.077c.5.282.693,1.109.208,1.419a1.462,1.462,0,0,1,.935,1.4,2.8,2.8,0,0,1-.639,1.654c-1.415,1.9-3.92,2.669-5.56,4.37a13.207,13.207,0,0,0-1.449,1.936l-4.76,7.241a26.071,26.071,0,0,1-5.224,6.364,4.794,4.794,0,0,1-1.946,1.035,2.158,2.158,0,0,1-2.044-.568,3.351,3.351,0,0,1-.6-2.037C330.166,458.73,330.378,457.469,330.3,456.242Z" transform="translate(-228.819 -282.507)" fill="#fbbebe"/>
      <path id="Path_2164" data-name="Path 2164" d="M266.06,793.875a4.073,4.073,0,0,1,.508.618,2.155,2.155,0,0,1,.215,1.765,2.4,2.4,0,0,1-1.153,1.365,2.038,2.038,0,0,0-.363.208,2.875,2.875,0,0,1-.222.188.9.9,0,0,1-.5.094,17.314,17.314,0,0,1-3.765-.642,3.022,3.022,0,0,1-1.553-.729,2.985,2.985,0,0,1-.531-1.032l-.447-1.244a14.406,14.406,0,0,1-.672-2.316,4.793,4.793,0,0,1,.121-2.39.719.719,0,0,1,.165.487,5.415,5.415,0,0,0,.958,2.32,1.859,1.859,0,0,0,1.493.938,13.93,13.93,0,0,0,2.387.306.713.713,0,0,0,.336-.04.581.581,0,0,0,.272-.336,1.449,1.449,0,0,0,0-.982c-.212-.605-.807-1.009-1.093-1.58-.208-.427.084-.894.514-.534a13.288,13.288,0,0,1,1.1,1.16Z" transform="translate(-180.513 -519.521)" fill="#303d5c"/>
      <path id="Path_2165" data-name="Path 2165" d="M261.573,767.4c-.128,2.017-.219,4.165.881,5.849.393.605.921,1.113,1.372,1.681a2,2,0,0,1,.491,1.008,1.554,1.554,0,0,1-1.345,1.5,4.528,4.528,0,0,1-2.168-.313,3.97,3.97,0,0,1-3.237-4.253L257.118,770a9.1,9.1,0,0,1-.161-2.088,9.243,9.243,0,0,1,.561-2.256l.736-2.155a1.008,1.008,0,0,1,.336-.535.935.935,0,0,1,.558-.1c.706.037,2.478.292,2.82,1.039C262.252,764.557,261.623,766.624,261.573,767.4Z" transform="translate(-180.161 -501.663)" fill="#ee8e9e"/>
      <path id="Path_2166" data-name="Path 2166" d="M261.573,767.4c-.128,2.017-.219,4.165.881,5.849.393.605.921,1.113,1.372,1.681a2,2,0,0,1,.491,1.008,1.554,1.554,0,0,1-1.345,1.5,4.528,4.528,0,0,1-2.168-.313,3.97,3.97,0,0,1-3.237-4.253L257.118,770a9.1,9.1,0,0,1-.161-2.088,9.243,9.243,0,0,1,.561-2.256l.736-2.155a1.008,1.008,0,0,1,.336-.535.935.935,0,0,1,.558-.1c.706.037,2.478.292,2.82,1.039C262.252,764.557,261.623,766.624,261.573,767.4Z" transform="translate(-180.161 -501.663)" fill="#feacac"/>
      <path id="Path_2167" data-name="Path 2167" d="M279.043,589.748a.334.334,0,0,1,0,.057,2.518,2.518,0,0,1-.269.813,11.645,11.645,0,0,0-1.032,4.185,3.7,3.7,0,0,1-.145,1.056,5.238,5.238,0,0,1-.538.928,9.98,9.98,0,0,0-1.009,3.49,27.232,27.232,0,0,1-1.22,4.572c-.73,2.017-1.714,4.1-1.382,6.233a6.384,6.384,0,0,1,.195,1.53,4.542,4.542,0,0,1-.6,1.614c-.249.484-.471.982-.672,1.489s-.407,1.106-.571,1.681a2.239,2.239,0,0,0,.124,2.051,2.633,2.633,0,0,1,.37.454,1.2,1.2,0,0,1,0,.773q-.387,1.641-.834,3.268c-.229.854-.471,1.7-.723,2.548-1.842,6.192-3.93,12.321-5.17,18.664-.178.911-1.345,1.567-2.256,1.765a2.965,2.965,0,0,1-2.592-.693l-.178-.178a5.389,5.389,0,0,1-1.009-4.014c.336-6.525,3.607-12.5,5.17-18.842a36.1,36.1,0,0,0,1.009-7c.366-7.88.511-16.2-1.714-23.771-.464-1.573-1.009-3.362-.182-4.764a4.772,4.772,0,0,1,2.464-1.8,15.854,15.854,0,0,1,12.294.313,4.428,4.428,0,0,1-.017.474,4.817,4.817,0,0,0,.245,2.172,2.71,2.71,0,0,1,.242.931Z" transform="translate(-181.861 -383.442)" fill="#303d5c"/>
      <path id="Path_2168" data-name="Path 2168" d="M232.956,777.615l-.413,1.516a17.5,17.5,0,0,1-.887,2.669,11.355,11.355,0,0,0-.787,1.812,5.6,5.6,0,0,0-.134,1.553,4.637,4.637,0,0,0,.215,1.473,3.654,3.654,0,0,0,2.145,2.037,10.082,10.082,0,0,0,2.985.561,2.543,2.543,0,0,0,.783-.02,2.165,2.165,0,0,0,.76-.4,6.317,6.317,0,0,0,2.222-4.6,5.715,5.715,0,0,0-.235-1.173c-.108-.145-1.153.447-.706.938.672.733-1.277.353-2.262.292a9.145,9.145,0,0,1-1.277-.212l-1.6-.336c-.521-.114-1.123-.292-1.308-.793s.219-1.1.535-1.58a10.35,10.35,0,0,0,1.24-4.391c.037-.3.41-2.236-.36-1.634a2.158,2.158,0,0,0-.535,1.009C233.192,776.758,233.074,777.188,232.956,777.615Z" transform="translate(-162.753 -509.867)" fill="#303d5c"/>
      <path id="Path_2169" data-name="Path 2169" d="M271.921,678.152a2.266,2.266,0,0,1-.124-2.051c.074-.255.155-.511.239-.763l-6.263-2.118c-.023.561-.047,1.123-.074,1.681a36.165,36.165,0,0,1-1.009,7c-1.563,6.34-4.851,12.314-5.17,18.826-.074,1.5.087,3.18,1.2,4.192a2.961,2.961,0,0,0,2.592.693c.908-.2,2.078-.854,2.256-1.768,1.24-6.34,3.325-12.469,5.17-18.664q.864-2.884,1.556-5.816a1.186,1.186,0,0,0,0-.77A2.352,2.352,0,0,0,271.921,678.152Z" transform="translate(-181.856 -442.158)" opacity="0.05"/>
      <path id="Path_2170" data-name="Path 2170" d="M237.45,756.742a7.274,7.274,0,0,0-1.365,2.585,15.71,15.71,0,0,0,.108,1.772,5.611,5.611,0,0,1-.259,1.446q-.914,3.3-2.108,6.518a1.775,1.775,0,0,0-.165.884,1.539,1.539,0,0,0,1.035,1.032,10.944,10.944,0,0,0,4.79.528,2.511,2.511,0,0,0,1.345-.313,2.35,2.35,0,0,0,.76-1.886c.111-2.017-.232-4.074,0-6.1.081-.736.235-1.462.353-2.2a6.443,6.443,0,0,0-.094-3.059,7.147,7.147,0,0,0-1.146-1.926,6.011,6.011,0,0,0-1.593-1.587c-.188-.114-.733-.461-.924-.242-.1.111-.054.407-.071.545a5.082,5.082,0,0,1-.111.632A5.16,5.16,0,0,1,237.45,756.742Z" transform="translate(-164.698 -495.868)" fill="#fbbebe"/>
      <path id="Path_2171" data-name="Path 2171" d="M266.608,592.217a1.718,1.718,0,0,0-.114,1.425c.208.867.555,1.681.837,2.541a35.132,35.132,0,0,1,1.076,4.619c.266,1.412.82,2.985.592,4.4a31.479,31.479,0,0,1,3.328,10.421c.128.935-1.95,2.145-1.909,3.089.077,1.872,1.573,2.017.467,3.523-.054.074.413,1.748.336,1.822-.45.541-1.008.971-1.5,1.479a11.387,11.387,0,0,0-1.583,2.323c-2.857,5.154-6.982,11-5.715,16.758a1.008,1.008,0,0,1-.545,1.035,2.73,2.73,0,0,1-1.207.279h-.2a5.389,5.389,0,0,1-1.009-4.014c.336-6.525,3.607-12.5,5.17-18.842a36.1,36.1,0,0,0,1.008-7c.366-7.88.511-16.2-1.714-23.771-.464-1.573-1.008-3.362-.182-4.764a4.772,4.772,0,0,1,2.464-1.8,15.854,15.854,0,0,1,12.294.313,4.436,4.436,0,0,1-.017.474,4.818,4.818,0,0,0,.245,2.172,2.708,2.708,0,0,1,.245.945c0,.02.114-1.267.111-1.251-2.558.37-5.227,2.044-7.786,2.41a17.894,17.894,0,0,0-3.906.861A1.751,1.751,0,0,0,266.608,592.217Z" transform="translate(-181.815 -383.369)" opacity="0.05"/>
      <path id="Path_2172" data-name="Path 2172" d="M225.164,560.923q-.521,1.641-.908,3.315a2.753,2.753,0,0,0-.094,1.19,6.814,6.814,0,0,1,.336,1.093,3.52,3.52,0,0,1-.575,1.657c-.578,1.4.037,2.968.645,4.35l1.809,4.1,1.486,3.362c.44,1.008.884,2,1.308,3.009a97.73,97.73,0,0,1,4.73,14.17,1.711,1.711,0,0,0,.242.619c.252.336.706.43,1.076.635a2,2,0,0,1,.222,3.2c.212,2.464-1.637,4.844-2.589,7.127-2.188,5.248-1.792,11.161-2.545,16.809l.85-.494c.817.373.787,1.53,1.227,2.313.672,1.177,2.269,1.345,3.617,1.254a2.754,2.754,0,0,0,1.207-.279,1.009,1.009,0,0,0,.545-1.035c-1.271-5.755,2.854-11.6,5.715-16.762a11.189,11.189,0,0,1,1.583-2.32c.484-.511,1.052-.941,1.5-1.479,1.261-1.513,1.422-3.647,1.345-5.614a31.449,31.449,0,0,0-3.577-13.259c.225-1.419-.336-2.989-.592-4.4a34.842,34.842,0,0,0-1.072-4.606c-.282-.851-.629-1.681-.837-2.545a1.356,1.356,0,0,1,.921-1.946,17.98,17.98,0,0,1,3.913-.888l8.794-1.264a22.243,22.243,0,0,0,.377-5.638,8.673,8.673,0,0,0-6.2-7.255,1.317,1.317,0,0,0-1.15.074,45.78,45.78,0,0,0-23.313,1.5Z" transform="translate(-158.083 -366.047)" fill="#303d5c"/>
      <path id="Path_2173" data-name="Path 2173" d="M239.337,415.724a4.33,4.33,0,0,1-.387,2.518,3.964,3.964,0,0,1-1.009,1.106,7.533,7.533,0,0,1-2.9,1.442,3.078,3.078,0,0,0-1.735.756c-.619.746-.205,1.872.336,2.689a7.026,7.026,0,0,0,3.8,3.143c1.3.353,2.689.134,4.007.366.961.165,1.866.561,2.814.79A8.314,8.314,0,0,0,251.9,426.4a10.9,10.9,0,0,1-3.6-3.853,5.466,5.466,0,0,1-.276-3.7c.336-1.2,1.1-2.373.864-3.6a3.742,3.742,0,0,0-2.642-2.484,17.015,17.015,0,0,0-3.311-.672c-.622-.084-4.558-.955-4.8-.524-.138.242.672,1.681.78,2A7.531,7.531,0,0,1,239.337,415.724Z" transform="translate(-164.262 -268.392)" fill="#fbbebe"/>
      <circle id="Ellipse_113" data-name="Ellipse 113" cx="7.987" cy="7.987" r="7.987" transform="translate(72.039 134.228)" fill="#fbbebe"/>
      <path id="Path_2174" data-name="Path 2174" d="M222.407,442.872l5.416.914a20.507,20.507,0,0,0,4.034.407,11.227,11.227,0,0,1,2.229,0c.511.084,1.008.279,1.516.336.632.081,1.274-.04,1.906.04a6.02,6.02,0,0,1,3.026,1.741c1.045.914,2.172,1.98,2.249,3.362a.941.941,0,0,1-.064.464,1.362,1.362,0,0,1-.4.42,12.6,12.6,0,0,0-2.262,3.113,12.079,12.079,0,0,1-2.689,2.9c-.235-.151-.672.249-.582.508s.36.444.444.713c.192.612-.565,1.062-.877,1.624a4.419,4.419,0,0,0-.188,1.93c-.037.716-.336,1.4-.417,2.115-.219,1.664.6,3.415.024,4.989a1.579,1.579,0,0,1,1.556,1.21,4.551,4.551,0,0,1-.064,2.125,2.925,2.925,0,0,1,1.415,2.673.642.642,0,0,0,.071.477.672.672,0,0,0,.272.158,2.689,2.689,0,0,1,1.681,2.5,1.207,1.207,0,0,0,.05.528,1.183,1.183,0,0,0,.39.407,3.113,3.113,0,0,1,1.163,2.434,1.76,1.76,0,0,1-.827,1.6,14.652,14.652,0,0,1-3.637,1.083,31.219,31.219,0,0,1-3.52.622,31.676,31.676,0,0,1-3.294.1l-7.248-.03c-2.017,0-4.074,0-6.1-.151a17.236,17.236,0,0,0-5.671.131c-.229-.387.138-.84.366-1.23a4.145,4.145,0,0,0,.413-1.7l.457-4.827a8.877,8.877,0,0,0,.034-2.017c-.1-.709-.366-1.382-.5-2.088a28.122,28.122,0,0,1-.084-4.128,19.339,19.339,0,0,0-.632-3.6l-1.412-5.9a21.089,21.089,0,0,0-.706-2.962q-1.661-4.256-3.473-8.441a.891.891,0,0,1,.064-.75l1.2-2.145a13.611,13.611,0,0,1,1.1-1.748,6.885,6.885,0,0,1,4.034-2.481,7.123,7.123,0,0,1,4.706.7c.558.3,1.076.672,1.644.951A6.634,6.634,0,0,0,222.407,442.872Z" transform="translate(-146.61 -287.455)" fill="#02b9b5"/>
      <path id="Path_2175" data-name="Path 2175" d="M303.425,463.85l1.889,2.515a3.5,3.5,0,0,1,.437.7,11.56,11.56,0,0,1,.282,2.138,4.505,4.505,0,0,0,.551,1.274,28.933,28.933,0,0,0,2.4,3.57,6.205,6.205,0,0,0,1.493,1.472,2.447,2.447,0,0,0,2.017.356,1.247,1.247,0,0,0-.672.6,7.3,7.3,0,0,0-.467,4.673,4.883,4.883,0,0,0,.524,1.53,2.289,2.289,0,0,0,1.2,1.039,1.772,1.772,0,0,1-2.084,1.5,3.509,3.509,0,0,1-1.035-.514l-3.026-1.96a8.718,8.718,0,0,1-1.409-1.059c-.565-.565-.961-1.281-1.513-1.862-.938-1.008-2.316-1.587-2.982-2.78a12.835,12.835,0,0,1-.743-2.451c-.168-.535-.414-1.039-.575-1.577a7.066,7.066,0,0,1,.622-5.043A20.619,20.619,0,0,1,303.425,463.85Z" transform="translate(-208.398 -303.172)" fill="#02b9b5"/>
      <path id="Path_2176" data-name="Path 2176" d="M233.83,379.107a10.516,10.516,0,0,0-2.81-2.921,9.578,9.578,0,0,0-5.066-2.145,5.476,5.476,0,0,0-2.283.373c-.034-2.256-.6-3.758-2-3.53-2.625.42-5.547,1.432-6.552,3.893-.756,1.859-.171,3.953.024,5.954a4.551,4.551,0,0,1-.057,1.583,5.55,5.55,0,0,1-1.388,2.178,11.581,11.581,0,0,0-2,2.8,4.107,4.107,0,0,0-.134,3.362,2.471,2.471,0,0,1,.336.881c.03.672-.672,1.116-1.21,1.553-1.97,1.63-1.886,4.6-1.9,7.164a36.226,36.226,0,0,1-3.426,15.128,4.626,4.626,0,0,0,5.177-.672,17.29,17.29,0,0,1-1.177,3.389c1.681.807,3.678-.518,4.515-2.172s.935-3.577,1.53-5.332,1.651-3.281,2.1-5.043a4.648,4.648,0,0,1,.6-1.681,4.4,4.4,0,0,1,1.049-.894c1.721-1.234-.81-10.583-.138-12.593,1.008.222,2.837-4.6,3.883-9.507a4.968,4.968,0,0,0,2.273.225,2.9,2.9,0,0,1,.814-.057,2.164,2.164,0,0,1,.709.289,17.467,17.467,0,0,0,2.417,1.244,13.68,13.68,0,0,0,5.486.467,5.456,5.456,0,0,0-.766-3.937Z" transform="translate(-145.914 -241.444)" fill="#303d5c"/>
      <g id="Group_433" data-name="Group 433" transform="translate(59.453 129.417)" opacity="0.1">
        <path id="Path_2177" data-name="Path 2177" d="M206.311,415.379a36.276,36.276,0,0,0,3.426-15.128c0-2.562-.071-5.533,1.9-7.164.524-.437,1.24-.871,1.207-1.553a2.4,2.4,0,0,0-.336-.881,4.123,4.123,0,0,1,.131-3.362,11.676,11.676,0,0,1,2-2.8,5.631,5.631,0,0,0,1.392-2.178,4.636,4.636,0,0,0,.057-1.583c-.195-2.017-.783-4.095-.024-5.954.972-2.383,3.738-3.405,6.3-3.849a1.344,1.344,0,0,0-.672-.044c-2.625.42-5.547,1.432-6.552,3.893-.756,1.859-.171,3.953.024,5.954a4.553,4.553,0,0,1-.057,1.583,5.55,5.55,0,0,1-1.388,2.178,11.582,11.582,0,0,0-2,2.8,4.107,4.107,0,0,0-.134,3.362,2.472,2.472,0,0,1,.336.881c.03.672-.672,1.116-1.21,1.553-1.97,1.63-1.886,4.6-1.9,7.164a36.226,36.226,0,0,1-3.426,15.128,4.478,4.478,0,0,0,2.538.474A4.347,4.347,0,0,1,206.311,415.379Z" transform="translate(-205.38 -370.859)"/>
        <path id="Path_2178" data-name="Path 2178" d="M218.191,504.659a17.275,17.275,0,0,0,1.173-3.389,4.258,4.258,0,0,1-1.136.753,17.106,17.106,0,0,1-.978,2.636,2.487,2.487,0,0,0,1.543.2,2.476,2.476,0,0,1-.6-.2Z" transform="translate(-213.26 -457.43)"/>
        <path id="Path_2179" data-name="Path 2179" d="M262.621,380.679a5.379,5.379,0,0,1,1.52-.356l-.178-.017a5.38,5.38,0,0,0-1.345.1C262.615,380.5,262.621,380.585,262.621,380.679Z" transform="translate(-243.376 -377.126)"/>
        <path id="Path_2180" data-name="Path 2180" d="M271.153,402.585a17.691,17.691,0,0,1-2.42-1.244,2.107,2.107,0,0,0-.709-.289,2.526,2.526,0,0,0-.743.047,2.757,2.757,0,0,1,.514.242,17.454,17.454,0,0,0,2.417,1.244,10.885,10.885,0,0,0,4.051.524A9.54,9.54,0,0,1,271.153,402.585Z" transform="translate(-246.471 -390.896)"/>
        <path id="Path_2181" data-name="Path 2181" d="M260.227,400.57c-.017.071-.034.141-.047.215a4.833,4.833,0,0,0,1.187.03A5.108,5.108,0,0,1,260.227,400.57Z" transform="translate(-241.758 -390.582)"/>
      </g>
      <path id="Path_2182" data-name="Path 2182" d="M189.823,454.046a2.908,2.908,0,0,1-.783,2.333,5.105,5.105,0,0,1-1.113.817,2.928,2.928,0,0,1-1.321.5,2.488,2.488,0,0,1-1.681-.733A11.265,11.265,0,0,1,182.2,452.2a35.7,35.7,0,0,1-2.061-7.039c-.39-2.6-.225-5.291-.968-7.813.672-1.321,1.082-2.777,1.832-4.051a18.421,18.421,0,0,0,1.264-2.37,8.152,8.152,0,0,0,.208-5.463.74.74,0,0,1,.874.047,1.778,1.778,0,0,1,.528.763,6.774,6.774,0,0,1,.521,3.21,1.3,1.3,0,0,0,.094.787,1.009,1.009,0,0,0,.854.36,7.5,7.5,0,0,0,1.97-.36,18.387,18.387,0,0,1,6.075-.5,2.908,2.908,0,0,1,1.183.289c.376.188,0,.447,0,.867l-4.246.834a1.99,1.99,0,0,0-1.009.336.672.672,0,0,0-.141.961,2.255,2.255,0,0,0,.336.225,1.009,1.009,0,0,1-.04,1.6,1.009,1.009,0,0,0-.336.229c-.2.266.067.619.148.941a1.183,1.183,0,0,1-.582,1.21,4.108,4.108,0,0,1-1.345.454,14.281,14.281,0,0,0-2.773.945,1.5,1.5,0,0,0-.723.538,1.622,1.622,0,0,0,.084,1.362l1.264,3.409c.2.534.4,1.069.645,1.58.336.672.719,1.3,1.049,1.96a20.556,20.556,0,0,1,.79,1.909C188.334,451.162,189.608,452.2,189.823,454.046Z" transform="translate(-128.528 -277.609)" fill="#fbbebe"/>
      <path id="Path_2183" data-name="Path 2183" d="M376.81,440.749a1.509,1.509,0,0,0-.555.81.336.336,0,0,0,.128.363.369.369,0,0,0,.225,0,2.135,2.135,0,0,0,.975-.464,1.009,1.009,0,0,0-.292.235.336.336,0,0,0-.037.356.461.461,0,0,0,.319.168,3.117,3.117,0,0,0,1.409-.067,1.886,1.886,0,0,0-.588.336.78.78,0,0,0-.262.605.289.289,0,0,0,.1.229.423.423,0,0,0,.155.054,3.8,3.8,0,0,0,1.308,0,.672.672,0,0,0,.551-.336.824.824,0,0,0-.128-.632,3.506,3.506,0,0,1-.336-1.6.649.649,0,0,0-.047-.336.589.589,0,0,0-.292-.212,2.447,2.447,0,0,0-1.607-.319,3.317,3.317,0,0,0-1.029.81Z" transform="translate(-259.351 -287.265)" fill="#ecaf91"/>
      <g id="Group_432" data-name="Group 432" transform="translate(134.796 14.953)" opacity="0.9">
        <rect id="Rectangle_705" data-name="Rectangle 705" width="3.331" height="27.475" rx="1.666" transform="translate(110.859 51.421)" fill="#3a3768"/>
        <rect id="Rectangle_706" data-name="Rectangle 706" width="1.869" height="9.046" rx="0.935" transform="translate(0.067 29.896)" fill="#3a3768"/>
        <rect id="Rectangle_707" data-name="Rectangle 707" width="2.108" height="15.746" rx="1.054" transform="translate(0 46.456)" fill="#3a3768"/>
        <rect id="Rectangle_708" data-name="Rectangle 708" width="2.007" height="15.881" rx="1.003" transform="translate(0.034 67.708)" fill="#3a3768"/>
        <rect id="Rectangle_709" data-name="Rectangle 709" width="111.532" height="226.67" rx="10" transform="translate(1.126)" fill="#3a3768"/>
        <rect id="Rectangle_710" data-name="Rectangle 710" width="15.575" height="3.163" rx="1.582" transform="translate(46.133 6.77)" fill="#e6e8ec"/>
        <circle id="Ellipse_103" data-name="Ellipse 103" cx="1.795" cy="1.795" r="1.795" transform="translate(64.061 6.555)" fill="#e6e8ec"/>
      </g>
      <path id="Path_2122" data-name="Path 2122" d="M542.237,146.1H529.463v1.54a7.292,7.292,0,0,1-7.295,7.292h-40.7a7.3,7.3,0,0,1-7.295-7.292V146.1H462.2a8.858,8.858,0,0,0-8.858,8.858V352.1a8.858,8.858,0,0,0,8.858,8.858h80.039A8.858,8.858,0,0,0,551.1,352.1V154.958A8.858,8.858,0,0,0,542.237,146.1Z" transform="translate(-310.53 -125.241)" fill="#9ba6ff" opacity="0.5"/>
      <rect id="Rectangle_712" data-name="Rectangle 712" width="8.28" height="0.753" transform="translate(145.903 37.849)" fill="#fff"/>
      <rect id="Rectangle_713" data-name="Rectangle 713" width="8.28" height="0.753" transform="translate(145.903 40.108)" fill="#fff"/>
      <rect id="Rectangle_714" data-name="Rectangle 714" width="8.28" height="0.753" transform="translate(145.903 42.368)" fill="#fff"/>
      <path id="Path_2123" data-name="Path 2123" d="M715.468,198.726h-.306l-.118-.094a2.575,2.575,0,0,0,.6-1.647,2.5,2.5,0,1,0-2.488,2.518,2.582,2.582,0,0,0,1.641-.6l.114.1v.309l1.93,1.936.578-.582Zm-2.313,0a1.731,1.731,0,1,1,1.23-.509,1.741,1.741,0,0,1-1.23.509Z" transform="translate(-481.333 -157.37)" fill="#fff"/>
      <circle id="Ellipse_104" data-name="Ellipse 104" cx="4.138" cy="4.138" r="4.138" transform="translate(149.903 65.418)" fill="#e6e8ec" opacity="0.99"/>
      <rect id="Rectangle_715" data-name="Rectangle 715" width="57.573" height="2.259" transform="translate(163.024 65.694)" fill="#e6e8ec"/>
      <rect id="Rectangle_716" data-name="Rectangle 716" width="57.573" height="2.259" transform="translate(163.212 70.586)" fill="#e6e8ec"/>
      <rect id="Rectangle_717" data-name="Rectangle 717" width="57.573" height="2.259" transform="translate(163.401 75.48)" fill="#e6e8ec"/>
      <circle id="Ellipse_105" data-name="Ellipse 105" cx="4.138" cy="4.138" r="4.138" transform="translate(149.903 93.64)" fill="#e6e8ec" opacity="0.99"/>
      <rect id="Rectangle_718" data-name="Rectangle 718" width="57.573" height="2.259" transform="translate(163.024 93.916)" fill="#e6e8ec"/>
      <rect id="Rectangle_719" data-name="Rectangle 719" width="57.573" height="2.259" transform="translate(163.212 98.807)" fill="#e6e8ec"/>
      <rect id="Rectangle_720" data-name="Rectangle 720" width="57.573" height="2.259" transform="translate(163.401 103.699)" fill="#e6e8ec"/>
      <circle id="Ellipse_106" data-name="Ellipse 106" cx="4.138" cy="4.138" r="4.138" transform="translate(149.903 121.861)" fill="#e6e8ec" opacity="0.99"/>
      <rect id="Rectangle_721" data-name="Rectangle 721" width="57.573" height="2.259" transform="translate(163.024 122.138)" fill="#e6e8ec"/>
      <rect id="Rectangle_722" data-name="Rectangle 722" width="57.573" height="2.259" transform="translate(163.212 127.029)" fill="#e6e8ec"/>
      <rect id="Rectangle_723" data-name="Rectangle 723" width="57.573" height="2.259" transform="translate(163.401 131.92)" fill="#e6e8ec"/>
      <circle id="Ellipse_107" data-name="Ellipse 107" cx="4.138" cy="4.138" r="4.138" transform="translate(149.903 150.083)" fill="#e6e8ec" opacity="0.99"/>
      <rect id="Rectangle_724" data-name="Rectangle 724" width="57.573" height="2.259" transform="translate(163.024 150.359)" fill="#e6e8ec"/>
      <rect id="Rectangle_725" data-name="Rectangle 725" width="57.573" height="2.259" transform="translate(163.212 155.251)" fill="#e6e8ec"/>
      <rect id="Rectangle_726" data-name="Rectangle 726" width="57.573" height="2.259" transform="translate(163.401 160.142)" fill="#e6e8ec"/>
      <circle id="Ellipse_108" data-name="Ellipse 108" cx="4.138" cy="4.138" r="4.138" transform="translate(149.903 178.304)" fill="#e6e8ec" opacity="0.99"/>
      <rect id="Rectangle_727" data-name="Rectangle 727" width="57.573" height="2.259" transform="translate(163.024 178.581)" fill="#e6e8ec"/>
      <rect id="Rectangle_728" data-name="Rectangle 728" width="57.573" height="2.259" transform="translate(163.212 183.472)" fill="#e6e8ec"/>
      <rect id="Rectangle_729" data-name="Rectangle 729" width="57.573" height="2.259" transform="translate(163.401 188.363)" fill="#e6e8ec"/>
      <circle id="Ellipse_109" data-name="Ellipse 109" cx="4.138" cy="4.138" r="4.138" transform="translate(149.903 206.526)" fill="#e6e8ec" opacity="0.99"/>
      <rect id="Rectangle_730" data-name="Rectangle 730" width="57.573" height="2.259" transform="translate(163.024 206.802)" fill="#e6e8ec"/>
      <rect id="Rectangle_731" data-name="Rectangle 731" width="57.573" height="2.259" transform="translate(163.212 211.694)" fill="#e6e8ec"/>
      <rect id="Rectangle_732" data-name="Rectangle 732" width="57.573" height="2.259" transform="translate(163.401 216.585)" fill="#e6e8ec"/>
      <circle id="Ellipse_110" data-name="Ellipse 110" cx="10.536" cy="10.536" r="10.536" transform="translate(210.246 208.309)" opacity="0.1"/>
      <path id="Path_2743" data-name="Path 2743" d="M9.406,0A9.406,9.406,0,1,1,0,9.406,9.406,9.406,0,0,1,9.406,0Z" transform="translate(211.376 209.438)" fill="#5400cb"/>
      <path id="Path_2129" data-name="Path 2129" d="M645.918,373.711a5.993,5.993,0,0,0,1.264,1.277c.313.259.635.524.972.76.094.067.192.131.289.195,0,.017-.02.034-.027.054a.763.763,0,0,0-.087.467,1.009,1.009,0,0,0,.36.484,4.975,4.975,0,0,1,1.516,2.74c.114.608-.3,1.261-.269,1.879a5.473,5.473,0,0,0,.477,1.755,9.475,9.475,0,0,0,2.084,3.61,11.672,11.672,0,0,0,2.336,5.759,18.727,18.727,0,0,0,3.943,3.456,7.664,7.664,0,0,0,1.456.914,8.23,8.23,0,0,0,1.442.387,74.353,74.353,0,0,0,12.67,1.432q.178,3.8.155,7.594a3.133,3.133,0,0,1-.175,1.227,5.458,5.458,0,0,1-.733,1.029c-.971,1.291-1.008,3.046-.941,4.663a42.942,42.942,0,0,0,.672,5.641c.44,2.387.037,5.022.884,7.295.336.9.672,1.792,1.009,2.689a2.375,2.375,0,0,1,.2.8,3.513,3.513,0,0,1-.672,1.6,4.636,4.636,0,0,0-.588,2.444.507.507,0,0,0,.071.272c.111.148.336.134.518.108a21.778,21.778,0,0,1,2.246-.208,4.115,4.115,0,0,0-.363.535,7.85,7.85,0,0,0-.477.982,9.283,9.283,0,0,0-.639,1.755,2.141,2.141,0,0,0-.064.269c-.04.182-.077.366-.108.548a18.15,18.15,0,0,0-.2,3.227,34.207,34.207,0,0,1-.4,4.727,7.79,7.79,0,0,0,.407,3.59,8.5,8.5,0,0,0,.487,2.689,16.208,16.208,0,0,0,.336,2.837q1.745,9.83,3.7,19.612c.118.568.229,1.133.38,1.681a13.756,13.756,0,0,0,2.518,4.979,22.631,22.631,0,0,1,2.629,4.209c-.077.356-.158.713-.242,1.066a76.119,76.119,0,0,0-2.057,9.393,13.021,13.021,0,0,1-.672,3.755,5.754,5.754,0,0,0-.672,1.819,2.017,2.017,0,0,0,.279,1.18c-.087.064-.172.131-.252.2l-.138.114a8.812,8.812,0,0,1-3.412,1.22,3.69,3.69,0,0,0-2.807,2.1,1.82,1.82,0,0,0-.057.225,2.974,2.974,0,0,0,1.345,2.851,7.553,7.553,0,0,0,3.362,1.032,10.942,10.942,0,0,1,3.459.793,21.945,21.945,0,0,0,2.689,1.536l.172.05c-.219.131-.44.259-.672.377a10.124,10.124,0,0,1-3.224,1.008c-1.136.158-2.494.232-3.079,1.224h0a2.181,2.181,0,0,0,.558,2.572,5.341,5.341,0,0,0,2.568,1.136,46.732,46.732,0,0,0,6.387.793l2.088.158c2.017.155,4.074.313,6.118.336a42.143,42.143,0,0,0,7.524-.656.82.82,0,0,0,.6-.289.854.854,0,0,0,.091-.477,36.769,36.769,0,0,0-.955-7.584c-.171-.746-1.19.272-1.762.918-.074-.373-.161-.743-.259-1.1l.447-.212a1.61,1.61,0,0,0,.82-.672,1.644,1.644,0,0,0,.087-.79,11.087,11.087,0,0,0-.961-4.784,10.137,10.137,0,0,0-1.9-2.316A88.388,88.388,0,0,0,698.8,487.3a20.969,20.969,0,0,0-2.78-7.345c-.185-.272-.387-.545-.588-.817a66.076,66.076,0,0,0-.9-7.372,1.9,1.9,0,0,1,0-.982,3.026,3.026,0,0,1,.541-.746c.894-1.153.528-2.794.424-4.253a20.31,20.31,0,0,1,.837-6.219q.914-3.779,1.819-7.56a12.246,12.246,0,0,1,.639-2.094,20.683,20.683,0,0,1,1.641-2.642,14.9,14.9,0,0,0,2.279-8.979c.336.121.672.245,1.029.38.252-2.111-.639-4.508,0-6.491a8.344,8.344,0,0,0,2.575-3.066c.5-1.116.639-2.373,1.16-3.479a10.726,10.726,0,0,0,.881-1.866,13.034,13.034,0,0,0-.05-3.089c.034-2.249,1.681-4.337,1.311-6.559-.168-1.056-.78-2.017-.746-3.1a5.194,5.194,0,0,1,.434-1.681c1.237-3.278,2.457-6.767,1.822-10.216a11.561,11.561,0,0,1-.4-2.656c.054-1.025.541-2.017.4-3.042a2.309,2.309,0,0,0-.457-1.066,12.779,12.779,0,0,0,1.126-2.158,3.089,3.089,0,0,0,.3-1.378,2.44,2.44,0,0,0-.972-1.641,9.831,9.831,0,0,0-1.681-.978,1.371,1.371,0,0,1-.494-.353,3.623,3.623,0,0,1-.279-.531c-.336-.575-1.052-.756-1.62-1.1-2.051-1.251-1.852-4.474-3.6-6.125a3.5,3.5,0,0,0-4.37-.232,1.072,1.072,0,0,1-.619.306,1.187,1.187,0,0,1-.6-.336,2.41,2.41,0,0,0-1.479-.41,14.191,14.191,0,0,1-.444-3.923h.158a2.076,2.076,0,0,0,.612-.071,3.225,3.225,0,0,0,1.782-2.057,15.615,15.615,0,0,0,.79-2.259c.02-.074.037-.148.054-.219,1.725,1.21,3.728,2.478,4.206,2.212.884-.487-3.95-3.926-3.95-3.926h0a3.848,3.848,0,0,0,1.009-2.219,12.066,12.066,0,0,0,.04-4.858,5.736,5.736,0,0,0-2.773-3.836,6.649,6.649,0,0,1-1.879-1.066h0a1.211,1.211,0,0,1-.182-.249h0a.625.625,0,0,1-.074-.131,1.835,1.835,0,0,0-.2-.4c-.266-.306-.746-.212-1.146-.165h-.346c-1.432.03-2.82-.77-4.269-.77-1.59,0-2.941.921-4.34,1.553-.282.128-.551.245-.8.363a3.627,3.627,0,0,0-2.017,1.832,2.84,2.84,0,0,0-.582,1.126,2.649,2.649,0,0,0-.074.578,9.618,9.618,0,0,0,4.323,16.136c.034.094.067.188.1.282a8.094,8.094,0,0,1,.42,2.689v.192a7.3,7.3,0,0,0-2.074.844,4.011,4.011,0,0,0-1.748,2.148,2.054,2.054,0,0,0-.054.205,5.536,5.536,0,0,0-1.58-.272,1.7,1.7,0,0,0-1.345.407,1.241,1.241,0,0,0-.256.521c-.185.171-.222.467-.336.692-.407.709-1.456.477-2.246.672-.857.212-1.533,1.008-2.417,1.008a4.129,4.129,0,0,0-1.008-.037c-.336.081-.592.534-.336.763a1.072,1.072,0,0,0-1.008.487c-.242.316-.4.693-.672.988a1.029,1.029,0,0,0-1.049-.407,3.891,3.891,0,0,0-1.106.437,1.591,1.591,0,0,1-.487.171,2.1,2.1,0,0,1-.6-.054,4.754,4.754,0,0,0-2.784.39c-.766.363-1.5-.3-2.353-.356a1.315,1.315,0,0,1-.861-.266,1.68,1.68,0,0,1-.336-.672,3.362,3.362,0,0,0-2.461-2.178,2.864,2.864,0,0,0-1.681-3.533,3.056,3.056,0,0,0-1.049-2.663,4.925,4.925,0,0,1-.531-.417,2.548,2.548,0,0,1-.487-.9l-.746-1.977c-.336-.067-.588-.205-.9-.259v-.2a6.482,6.482,0,0,0-.336-1.983,11.108,11.108,0,0,0-1.594-2.9,8.36,8.36,0,0,0-2.562-2.575,9.191,9.191,0,0,0-1.093-.5l-1.923-.793a.934.934,0,0,0-.336-.094c-.518,0-.612.8-.336,1.227.585.864,1.9,1.106,2.276,2.084A1.482,1.482,0,0,0,647,369.3a.75.75,0,0,1-.185.434c-.168.138-.434.057-.629.161-.336.185-.192.7-.229,1.082a5.2,5.2,0,0,1-.336.975,2.088,2.088,0,0,0,.3,1.755Zm46.1,134.8c0-.2-.027-.4-.044-.592.04.1.077.212.118.316.336.887.716,1.762,1.113,2.625l-.067-.037a3.323,3.323,0,0,0-.918-.262.939.939,0,0,1-.255-.024,7.168,7.168,0,0,0,.054-2.02Z" transform="translate(-438.119 -262.905)" fill="url(#linear-gradient-2)"/>
      <path id="Path_2130" data-name="Path 2130" d="M763.494,411.717c-.037,1.405-.511,2.763-.585,4.165,4.132.205,8.209-1.8,12.3-1.187a5.69,5.69,0,0,1-2.118-3.389,14.143,14.143,0,0,1-.4-5.2,2.141,2.141,0,0,1,.054-.289,7.352,7.352,0,0,0,.437-2.2c-.138-.713-.81-.572-1.419-.531a53.449,53.449,0,0,0-5.517.713c-.474.081-5.11,1.237-5.177,1.116a21.781,21.781,0,0,1,2.017,4.132A8.025,8.025,0,0,1,763.494,411.717Z" transform="translate(-514.81 -295.808)" fill="#e6a6af"/>
      <path id="Path_2131" data-name="Path 2131" d="M645.931,398.773a6.05,6.05,0,0,0,1.264,1.271c.313.259.635.521.971.756a4.152,4.152,0,0,0,2.068.84c.985.067,3.073-.511,3.7-1.345a2.427,2.427,0,0,0,.353-1.412,6.411,6.411,0,0,0-.336-1.973,11.013,11.013,0,0,0-1.593-2.884,8.5,8.5,0,0,0-2.562-2.562,9.764,9.764,0,0,0-1.093-.5l-1.923-.787a.934.934,0,0,0-.336-.094c-.518,0-.612.793-.336,1.22.585.861,1.9,1.1,2.276,2.074a1.476,1.476,0,0,0-1.375,1.062.74.74,0,0,1-.185.43c-.168.138-.434.06-.629.161-.336.185-.192.693-.229,1.079a5.217,5.217,0,0,1-.336.968A2.064,2.064,0,0,0,645.931,398.773Z" transform="translate(-438.132 -287.202)" fill="#e6a6af"/>
      <path id="Path_2132" data-name="Path 2132" d="M799.288,821.71c-.316-.336-.837-.266-1.281-.2a47.545,47.545,0,0,1-7.211.585c-.3-1.476.575-2.911.857-4.394a3.876,3.876,0,0,1,.286-1.109,2.534,2.534,0,0,1,1.825-1.1c1.3-.272,3.331-.756,4.058.555C798.693,817.626,798.972,819.956,799.288,821.71Z" transform="translate(-534.501 -569.394)" fill="#65617d"/>
      <path id="Path_2133" data-name="Path 2133" d="M734.842,804.083a7.55,7.55,0,0,0,3.362,1.029,10.937,10.937,0,0,1,3.459.79,21.874,21.874,0,0,0,2.689,1.526,5.57,5.57,0,0,0,2.773.044,4.113,4.113,0,0,0,2.854-1.55,4.766,4.766,0,0,0,.4-2.9c-.084-1.119-.165-2.239-.249-3.362a1.59,1.59,0,0,0-.208-.81c-.79-1.156-2.716.481-3.748.481a7.225,7.225,0,0,1-4.562-1.97,1.46,1.46,0,0,0-.356-.269c-.464-.208-.931.178-1.345.514l-.138.114a8.862,8.862,0,0,1-3.412,1.217,3.69,3.69,0,0,0-2.807,2.084,1.8,1.8,0,0,0-.057.222A2.913,2.913,0,0,0,734.842,804.083Z" transform="translate(-496.475 -557.35)" fill="#3f3d56"/>
      <path id="Path_2134" data-name="Path 2134" d="M734.842,804.083a7.55,7.55,0,0,0,3.362,1.029,10.937,10.937,0,0,1,3.459.79,21.874,21.874,0,0,0,2.689,1.526,5.57,5.57,0,0,0,2.773.044,4.113,4.113,0,0,0,2.854-1.55,4.766,4.766,0,0,0,.4-2.9c-.084-1.119-.165-2.239-.249-3.362a1.59,1.59,0,0,0-.208-.81c-.79-1.156-2.716.481-3.748.481a7.225,7.225,0,0,1-4.562-1.97,1.46,1.46,0,0,0-.356-.269c-.464-.208-.931.178-1.345.514l-.138.114a8.862,8.862,0,0,1-3.412,1.217,3.69,3.69,0,0,0-2.807,2.084,1.8,1.8,0,0,0-.057.222A2.913,2.913,0,0,0,734.842,804.083Z" transform="translate(-496.475 -557.35)" opacity="0.05"/>
      <path id="Path_2135" data-name="Path 2135" d="M734.614,804.479a7.549,7.549,0,0,0,3.362,1.029,10.936,10.936,0,0,1,3.459.79,21.873,21.873,0,0,0,2.689,1.526,5.571,5.571,0,0,0,2.773.044,4.583,4.583,0,0,0,2.854-1.926,4.766,4.766,0,0,0,.4-2.9c-.084-1.119-.165-2.239-.249-3.362a1.59,1.59,0,0,0-.208-.81c-.79-1.156-2.716.481-3.748.481a7.224,7.224,0,0,1-4.562-1.97,1.463,1.463,0,0,0-.356-.269c-.464-.208-.931.178-1.345.514a9.619,9.619,0,0,0,1.146,2.353,4.945,4.945,0,0,0,3.6,2.252,11.81,11.81,0,0,1,2.185.1c.706.188,1.345.908,1.113,1.6s-1.106.814-1.819.851a8.056,8.056,0,0,1-2.968-.205c-.578-.2-1.106-.514-1.681-.746-2.394-1.009-5.416-.437-7.4-2.114a4.438,4.438,0,0,0-.605-.464C732.735,802.351,733.7,803.851,734.614,804.479Z" transform="translate(-496.247 -557.363)" fill="#e8eaf2"/>
      <path id="Path_2136" data-name="Path 2136" d="M734.614,804.479a7.549,7.549,0,0,0,3.362,1.029,10.936,10.936,0,0,1,3.459.79,21.873,21.873,0,0,0,2.689,1.526,5.571,5.571,0,0,0,2.773.044,4.583,4.583,0,0,0,2.854-1.926,4.766,4.766,0,0,0,.4-2.9c-.084-1.119-.165-2.239-.249-3.362a1.59,1.59,0,0,0-.208-.81c-.79-1.156-2.716.481-3.748.481a7.224,7.224,0,0,1-4.562-1.97,1.463,1.463,0,0,0-.356-.269c-.464-.208-.931.178-1.345.514a9.619,9.619,0,0,0,1.146,2.353,4.945,4.945,0,0,0,3.6,2.252,11.81,11.81,0,0,1,2.185.1c.706.188,1.345.908,1.113,1.6s-1.106.814-1.819.851a8.056,8.056,0,0,1-2.968-.205c-.578-.2-1.106-.514-1.681-.746-2.394-1.009-5.416-.437-7.4-2.114a4.438,4.438,0,0,0-.605-.464C732.735,802.351,733.7,803.851,734.614,804.479Z" transform="translate(-496.247 -557.363)" opacity="0.05"/>
      <path id="Path_2137" data-name="Path 2137" d="M760.824,592.754a14.714,14.714,0,0,1-2.017,10.858,20.3,20.3,0,0,0-1.641,2.629,12.138,12.138,0,0,0-.639,2.084l-1.819,7.537a20.349,20.349,0,0,0-.837,6.186c.1,1.452.471,3.083-.424,4.232a3.028,3.028,0,0,0-.541.74,1.892,1.892,0,0,0,0,.978c.921,5.459,1.6,11.171-.06,16.452-1.5,4.787-1.59,10.085-2.871,14.946a3.31,3.31,0,0,1-.793,1.657,2.626,2.626,0,0,1-1.193.568,8.79,8.79,0,0,1-5.634-.894c-1.237-.571-2.568-1.577-2.461-2.935a6.233,6.233,0,0,1,.672-1.809,12.451,12.451,0,0,0,.672-3.735,74.752,74.752,0,0,1,2.057-9.342,22.319,22.319,0,0,0,.619-9.48,82.977,82.977,0,0,0-6.1-18.762,2.194,2.194,0,0,0-.558-.837,5.949,5.949,0,0,1-.79-.541,2.378,2.378,0,0,1-.36-.985,10.675,10.675,0,0,0-1.641-2.589c-1.385-2.2-.945-5.016-.894-7.611.05-2.525-.313-5.07.1-7.56s1.839-5.043,4.239-5.816a9.115,9.115,0,0,1,3.721-.175A72.5,72.5,0,0,1,760.824,592.754Z" transform="translate(-496.485 -418.882)" fill="#303d5c"/>
      <path id="Path_2138" data-name="Path 2138" d="M760.824,592.754a14.714,14.714,0,0,1-2.017,10.858,20.3,20.3,0,0,0-1.641,2.629,12.138,12.138,0,0,0-.639,2.084l-1.819,7.537a20.349,20.349,0,0,0-.837,6.186c.1,1.452.471,3.083-.424,4.232a3.028,3.028,0,0,0-.541.74,1.892,1.892,0,0,0,0,.978c.921,5.459,1.6,11.171-.06,16.452-1.5,4.787-1.59,10.085-2.871,14.946a3.31,3.31,0,0,1-.793,1.657,2.626,2.626,0,0,1-1.193.568,8.79,8.79,0,0,1-5.634-.894c-1.237-.571-2.568-1.577-2.461-2.935a6.233,6.233,0,0,1,.672-1.809,12.451,12.451,0,0,0,.672-3.735,74.752,74.752,0,0,1,2.057-9.342,22.319,22.319,0,0,0,.619-9.48,82.977,82.977,0,0,0-6.1-18.762,2.194,2.194,0,0,0-.558-.837,5.949,5.949,0,0,1-.79-.541,2.378,2.378,0,0,1-.36-.985,10.675,10.675,0,0,0-1.641-2.589c-1.385-2.2-.945-5.016-.894-7.611.05-2.525-.313-5.07.1-7.56s1.839-5.043,4.239-5.816a9.115,9.115,0,0,1,3.721-.175A72.5,72.5,0,0,1,760.824,592.754Z" transform="translate(-496.485 -418.882)" opacity="0.05"/>
      <path id="Path_2139" data-name="Path 2139" d="M733.008,610.967a15.806,15.806,0,0,0,.336,2.918q1.745,9.779,3.7,19.5c.118.565.229,1.126.38,1.681a13.664,13.664,0,0,0,2.518,4.952c5.48,6.828,5.954,16.745,8.925,24.978.2.558.4,1.116.612,1.681a41.64,41.64,0,0,0,1.836,4.091,1.152,1.152,0,0,0,.376.487,1.126,1.126,0,0,0,.6.118,17.432,17.432,0,0,0,7.732-1.758,1.6,1.6,0,0,0,.82-.672,1.638,1.638,0,0,0,.087-.787,10.968,10.968,0,0,0-.961-4.757,10.086,10.086,0,0,0-1.9-2.306,87.476,87.476,0,0,0-1.862-15.262,20.808,20.808,0,0,0-2.78-7.308c-1.1-1.6-2.666-3.17-2.474-5.1.087-.847.44-1.9-.249-2.4-.3-.219-.746-.245-.948-.558a1.029,1.029,0,0,1-.135-.477,11.844,11.844,0,0,1,.245-3.953,21.292,21.292,0,0,0,.588-2.575,3.233,3.233,0,0,0-.649-2.488c-.037-1.758,0-3.584-.024-5.342a9.954,9.954,0,0,1,.249-2.982c.131-.461.336-.9.437-1.372.37-1.681-.548-3.7.545-5.043A7.418,7.418,0,0,1,752.758,605a6.409,6.409,0,0,0,2.407-3.459,19.111,19.111,0,0,0,.672-4.236,4.418,4.418,0,0,0,0-.918,1.714,1.714,0,0,0-.124-.457,2.786,2.786,0,0,0-2.064-1.254,66.762,66.762,0,0,0-15.766-1.842c-1.963-1.345-3.069-.861-3.9.558a14.368,14.368,0,0,0-1.113,2.713c-.38,1.146-.4,7.581-.773,8.74C731.626,606.327,733.008,609.393,733.008,610.967Z" transform="translate(-495.512 -421.268)" fill="#303d5c"/>
      <path id="Path_2140" data-name="Path 2140" d="M814.758,470.092c.145,1.008-.336,2.017-.4,3.026a11.448,11.448,0,0,0,.4,2.642c.635,3.429-.585,6.9-1.822,10.162a5.136,5.136,0,0,0-.434,1.681c-.034,1.062.578,2.037.746,3.089.353,2.209-1.277,4.286-1.311,6.522a12.239,12.239,0,0,1,.05,3.073,10.558,10.558,0,0,1-.881,1.859c-.521,1.1-.672,2.353-1.16,3.459-.9,2.017-2.837,3.318-4.676,4.521a4.725,4.725,0,0,1-2.757-1.7,4.219,4.219,0,0,1-.481-1.5,38.6,38.6,0,0,1-.37-6.942,43.279,43.279,0,0,1,.316-5.98c.373-2.521,1.19-4.952,1.778-7.433.74-3.13,1.12-6.364,2.273-9.366a31.582,31.582,0,0,1,4.256-7.271c.632-.867,1.133-2.1,2.353-1.9a2.585,2.585,0,0,1,2.115,2.064Z" transform="translate(-541.755 -338.932)" fill="#3f3d56"/>
      <path id="Path_2141" data-name="Path 2141" d="M814.758,470.092c.145,1.008-.336,2.017-.4,3.026a11.448,11.448,0,0,0,.4,2.642c.635,3.429-.585,6.9-1.822,10.162a5.136,5.136,0,0,0-.434,1.681c-.034,1.062.578,2.037.746,3.089.353,2.209-1.277,4.286-1.311,6.522a12.239,12.239,0,0,1,.05,3.073,10.558,10.558,0,0,1-.881,1.859c-.521,1.1-.672,2.353-1.16,3.459-.9,2.017-2.837,3.318-4.676,4.521a4.725,4.725,0,0,1-2.757-1.7,4.219,4.219,0,0,1-.481-1.5,38.6,38.6,0,0,1-.37-6.942,43.279,43.279,0,0,1,.316-5.98c.373-2.521,1.19-4.952,1.778-7.433.74-3.13,1.12-6.364,2.273-9.366a31.582,31.582,0,0,1,4.256-7.271c.632-.867,1.133-2.1,2.353-1.9a2.585,2.585,0,0,1,2.115,2.064Z" transform="translate(-541.755 -338.932)" opacity="0.05"/>
      <path id="Path_2142" data-name="Path 2142" d="M761.07,404.913a21.781,21.781,0,0,1,2.017,4.132,9.464,9.464,0,0,0,2.279.276c2.978,0,5.09-1.681,6.841-3.836.151-.672,1.1-1.328.988-1.869-.138-.713-.81-.572-1.419-.531a53.448,53.448,0,0,0-5.517.713C765.773,403.877,761.137,405.047,761.07,404.913Z" transform="translate(-514.81 -295.808)" opacity="0.1"/>
      <circle id="Ellipse_112" data-name="Ellipse 112" cx="9.547" cy="9.547" r="9.547" transform="translate(240.996 94.158)" fill="#e6a6af"/>
      <path id="Path_2143" data-name="Path 2143" d="M737.93,593.347c1.651-.1,3.315-.034,4.972.034a17.294,17.294,0,0,1,3.089.316c1.254.286,2.427.857,3.664,1.214a33.548,33.548,0,0,0,6.122.807,35.2,35.2,0,0,1,4.007.625,1.711,1.711,0,0,0-.124-.457,2.785,2.785,0,0,0-2.064-1.254,66.762,66.762,0,0,0-15.766-1.842C739.866,591.458,738.76,591.935,737.93,593.347Z" transform="translate(-499.449 -421.244)" opacity="0.1"/>
      <path id="Path_2144" data-name="Path 2144" d="M736.53,433.563c.417.481.975,1.009,1.594.854a2.2,2.2,0,0,0,.618-.336,9.331,9.331,0,0,1,3.745-1.072,55.034,55.034,0,0,0,7.732-1.735,7.883,7.883,0,0,1,2.283-.464,5.512,5.512,0,0,1,4.064,2.353c1.012,1.267,1.721,2.753,2.73,4.027.709.908,1.553,1.708,2.215,2.652a11.629,11.629,0,0,1,1.6,8.371,33.988,33.988,0,0,1-2.72,8.27,28.494,28.494,0,0,1-2.222,4.481,10.685,10.685,0,0,1-.857,6.649,6.675,6.675,0,0,0-.867,1.977,5,5,0,0,0,.06,1.449l.487,3.456c.148,1.052.3,2.108.487,3.153.336,1.913.827,3.987-.061,5.715-1.062,2.071.054,4.73-.225,7.06a35.443,35.443,0,0,0-9.325-2.222,33.256,33.256,0,0,1-6.118-.8c-1.237-.36-2.41-.931-3.664-1.217a16.987,16.987,0,0,0-3.089-.316,36.744,36.744,0,0,0-6.854.155c-.185.027-.407.04-.518-.108a.494.494,0,0,1-.071-.269,4.579,4.579,0,0,1,.588-2.43,3.468,3.468,0,0,0,.672-1.593,2.354,2.354,0,0,0-.2-.793L727.6,478.14c-.847-2.259-.444-4.881-.884-7.255a42.5,42.5,0,0,1-.672-5.611,7.024,7.024,0,0,1,.941-4.643,5.283,5.283,0,0,0,.733-1.008,3.109,3.109,0,0,0,.175-1.22q.03-4.831-.266-9.658c.847-1.523,1.731-3.079,2.578-4.6a19.735,19.735,0,0,0,2.383-5.564c.262-1.318.252-2.673.44-4a1.741,1.741,0,0,1,.336-.931,1.691,1.691,0,0,1,1.345-.4A5.934,5.934,0,0,1,736.53,433.563Z" transform="translate(-491.544 -314.239)" fill="#3f3d56"/>
      <path id="Path_2145" data-name="Path 2145" d="M653.31,417.936a4.152,4.152,0,0,0,2.068.84c.985.067,3.073-.511,3.7-1.345a2.428,2.428,0,0,0,.353-1.412,1.74,1.74,0,0,0-.41-.077,10.758,10.758,0,0,0-3.2.128,3.608,3.608,0,0,0-2.488,1.866Z" transform="translate(-443.276 -304.327)" opacity="0.1"/>
      <path id="Path_2146" data-name="Path 2146" d="M685.364,439.038a6.664,6.664,0,0,1-2.017,1.9,6.5,6.5,0,0,1-3.133.481,75.194,75.194,0,0,1-13.111-1.439,8.227,8.227,0,0,1-1.442-.387,7.646,7.646,0,0,1-1.456-.911,18.353,18.353,0,0,1-3.943-3.436,11.594,11.594,0,0,1-2.336-5.732,9.368,9.368,0,0,1-2.084-3.59,5.416,5.416,0,0,1-.477-1.741c-.027-.619.383-1.267.269-1.876a4.938,4.938,0,0,0-1.516-2.723,1.008,1.008,0,0,1-.36-.481.752.752,0,0,1,.087-.464,3.589,3.589,0,0,1,2.484-1.869,10.78,10.78,0,0,1,3.207-.128,7.443,7.443,0,0,1,1.049.279l.746,1.967a2.533,2.533,0,0,0,.487.9,4.876,4.876,0,0,0,.531.414,3.026,3.026,0,0,1,1.049,2.649,2.847,2.847,0,0,1,1.681,3.516,3.362,3.362,0,0,1,2.461,2.165,1.64,1.64,0,0,0,.336.672,1.314,1.314,0,0,0,.861.266c.844.05,1.58.716,2.353.356a4.753,4.753,0,0,1,2.784-.39,2.1,2.1,0,0,0,.6.05,1.5,1.5,0,0,0,.487-.168,3.991,3.991,0,0,1,1.106-.437,1.035,1.035,0,0,1,1.049.407c.269-.292.43-.672.672-.982a1.079,1.079,0,0,1,1.009-.487c-.255-.225,0-.672.336-.76a4.486,4.486,0,0,1,1.009.037c.884,0,1.56-.807,2.417-1.009.79-.195,1.839.037,2.246-.672.141-.249.171-.585.413-.74a.807.807,0,0,1,.534-.061,5.22,5.22,0,0,1,1.61.487c.827,3.234.393,6.592-.239,9.87A8.657,8.657,0,0,1,685.364,439.038Z" transform="translate(-443.568 -304.791)" fill="#3f3d56"/>
      <path id="Path_2147" data-name="Path 2147" d="M746.018,515.7l4.111,8.29c-.444-.767-1.382-1.066-2.121-1.557a5.641,5.641,0,0,1-2.017-2.723,16.81,16.81,0,0,1-.777-3.362,3.039,3.039,0,0,1,0-1.741C745.671,514.711,745.823,515.313,746.018,515.7Z" transform="translate(-504.195 -369.868)" opacity="0.1"/>
      <path id="Path_2148" data-name="Path 2148" d="M779.7,535.567a36.425,36.425,0,0,0,3.083,2.407,28.462,28.462,0,0,1,5.745,7.06,11.405,11.405,0,0,1,1.173,2.138c-.195.168-.487,0-.672-.175L785.8,544.16a7.161,7.161,0,0,1-1.076-1.089c-.561-.756-.81-1.681-1.318-2.488a9.8,9.8,0,0,0-1.963-2.017c-.74-.635-4.148-3.516-3.318-4.636C778.716,534.249,779.207,535.08,779.7,535.567Z" transform="translate(-526.045 -382.693)" opacity="0.1"/>
      <path id="Path_2149" data-name="Path 2149" d="M758.372,428.134a9.58,9.58,0,0,1,3.419-1.126,7.165,7.165,0,0,1,2.172-.155c.672.084,1.318.336,1.994.38a8.987,8.987,0,0,0,2.777-.582,3.336,3.336,0,0,1,2.75.205,1.163,1.163,0,0,0,.6.319,1.066,1.066,0,0,0,.619-.3,3.516,3.516,0,0,1,4.37.232c1.751,1.641,1.553,4.848,3.6,6.091.568.336,1.291.524,1.62,1.1a3.958,3.958,0,0,0,.279.528,1.406,1.406,0,0,0,.494.336,9.8,9.8,0,0,1,1.681.972,2.427,2.427,0,0,1,.971,1.634,3.062,3.062,0,0,1-.3,1.372,12.872,12.872,0,0,1-12.509,8,1.977,1.977,0,0,1-1.311-.407,2.485,2.485,0,0,1-.461-.756c-.965-2.017-2.773-3.516-3.926-5.439-.672-1.146-1.123-2.427-1.839-3.553a17.081,17.081,0,0,0-4.337-4.2,4.987,4.987,0,0,0-3.059-1.368c-1.008.044-1.755.1-1.382-1.15A3.987,3.987,0,0,1,758.372,428.134Z" transform="translate(-511.776 -311.193)" fill="#3f3d56"/>
      <path id="Path_2150" data-name="Path 2150" d="M758.372,428.134a9.58,9.58,0,0,1,3.419-1.126,7.165,7.165,0,0,1,2.172-.155c.672.084,1.318.336,1.994.38a8.987,8.987,0,0,0,2.777-.582,3.336,3.336,0,0,1,2.75.205,1.163,1.163,0,0,0,.6.319,1.066,1.066,0,0,0,.619-.3,3.516,3.516,0,0,1,4.37.232c1.751,1.641,1.553,4.848,3.6,6.091.568.336,1.291.524,1.62,1.1a3.958,3.958,0,0,0,.279.528,1.406,1.406,0,0,0,.494.336,9.8,9.8,0,0,1,1.681.972,2.427,2.427,0,0,1,.971,1.634,3.062,3.062,0,0,1-.3,1.372,12.872,12.872,0,0,1-12.509,8,1.977,1.977,0,0,1-1.311-.407,2.485,2.485,0,0,1-.461-.756c-.965-2.017-2.773-3.516-3.926-5.439-.672-1.146-1.123-2.427-1.839-3.553a17.081,17.081,0,0,0-4.337-4.2,4.987,4.987,0,0,0-3.059-1.368c-1.008.044-1.755.1-1.382-1.15A3.987,3.987,0,0,1,758.372,428.134Z" transform="translate(-511.776 -311.193)" opacity="0.05"/>
      <path id="Path_2151" data-name="Path 2151" d="M745.754,828.466a5.346,5.346,0,0,0,2.568,1.13,46.717,46.717,0,0,0,6.387.787l2.088.161c2.017.155,4.074.309,6.118.319a42.141,42.141,0,0,0,7.524-.652.82.82,0,0,0,.6-.289.837.837,0,0,0,.091-.474,36.415,36.415,0,0,0-.931-7.544c-.235-1.009-2.061,1.264-2.145,1.345a2.08,2.08,0,0,1-1.657.881c-2.1.114-4.451-1.163-6.122-2.3a7.731,7.731,0,0,0-1.133-.7,3.441,3.441,0,0,0-.918-.262,5.551,5.551,0,0,0-3.123.635c-1.257.622-2.353,1.516-3.6,2.155a10.117,10.117,0,0,1-3.224,1.009c-1.136.155-2.494.232-3.079,1.217h0A2.188,2.188,0,0,0,745.754,828.466Z" transform="translate(-504.126 -573.154)" fill="#3f3d56"/>
      <path id="Path_2152" data-name="Path 2152" d="M745.485,828.867a5.31,5.31,0,0,0,2.568,1.126,46.176,46.176,0,0,0,6.387.79l2.088.161c2.017.155,4.074.309,6.118.319a42.147,42.147,0,0,0,7.524-.652.82.82,0,0,0,.6-.289,3.359,3.359,0,0,0,.467-.851,36.981,36.981,0,0,0-1.3-7.554c-.235-1.009-2.061,1.264-2.145,1.345a2.08,2.08,0,0,1-1.657.881c-2.1.114-4.451-1.163-6.122-2.3a7.742,7.742,0,0,0-1.133-.7,3.444,3.444,0,0,0-.918-.262c.269,1.513,2.437,3.338,3.557,3.893,2.262,1.123,4.952.565,7.476.7a1.008,1.008,0,0,1,.528.128,1.068,1.068,0,0,1,.313.992c-.02.6-.1,1.311-.622,1.617a1.809,1.809,0,0,1-.837.175,118.269,118.269,0,0,1-18.641-.672,10.151,10.151,0,0,1-3.026-.672,7.987,7.987,0,0,1-1.762-1.133C744.133,826.558,744.8,828.225,745.485,828.867Z" transform="translate(-503.857 -573.179)" fill="#e8eaf2"/>
      <path id="Path_2153" data-name="Path 2153" d="M756.931,372.324c.037.985-.639,2.9,1.207,2.353,1.1-.319,1.412-1.62,2.807-1.345s1.718,2.017,2.192,3.136a6.011,6.011,0,0,0,4.35,3.516,2.614,2.614,0,0,0,1.2,0,3.223,3.223,0,0,0,1.782-2.047,15.61,15.61,0,0,0,.79-2.246,9.52,9.52,0,0,0,.286-1.651h0a7.605,7.605,0,0,0,0-1.14,9.245,9.245,0,0,0-3.083-5.839,27.6,27.6,0,0,0-5.584-3.768,8.113,8.113,0,0,0-2.057-.918,6.835,6.835,0,0,0-2.175-.091,7.625,7.625,0,0,0-2.767.649,3.87,3.87,0,0,0-.975.672,2.929,2.929,0,0,0-.844,1.409c-.353,1.449.572,2.757,1.321,3.9A7.218,7.218,0,0,1,756.931,372.324Z" transform="translate(-510.103 -268.719)" fill="#3f3d56"/>
      <path id="Path_2154" data-name="Path 2154" d="M670.35,445.976c.393-1.008,2.051-3.745,1.573-4.706a12.578,12.578,0,0,0-1.264,2.256C670.347,444.309,670.6,445.341,670.35,445.976Z" transform="translate(-454.587 -321.183)" opacity="0.1"/>
      <path id="Path_2155" data-name="Path 2155" d="M755.229,371.34c-.753-1.146-1.681-2.454-1.325-3.9a3.026,3.026,0,0,1,1.076-1.607,2.569,2.569,0,0,0-.272.672c-.356,1.452.572,2.757,1.321,3.9a6.934,6.934,0,0,1,1.546,3.362c.037.988-.639,2.9,1.21,2.353,1.1-.319,1.409-1.624,2.807-1.345s1.714,2.017,2.188,3.136a6.007,6.007,0,0,0,4.35,3.513,2.615,2.615,0,0,0,1.2,0,1.767,1.767,0,0,0,.565-.276,2.444,2.444,0,0,1-1.365,1.207,2.615,2.615,0,0,1-1.2,0,6.017,6.017,0,0,1-4.353-3.516c-.471-1.126-.78-2.841-2.188-3.136s-1.708,1.009-2.807,1.345c-1.849.535-1.173-1.382-1.21-2.353A6.812,6.812,0,0,0,755.229,371.34Z" transform="translate(-510.001 -271.104)" opacity="0.1"/>
      <path id="Path_2156" data-name="Path 2156" d="M755.645,367.025a8.532,8.532,0,0,0,.568.81,9.707,9.707,0,0,0,1.3,1.345c.282.245.575.474.881.693a14.072,14.072,0,0,0,1.782,1.062,32.465,32.465,0,0,0,5.715,2.044l3.812,1.109c.467.336,1.325.992,2.269,1.654a9.522,9.522,0,0,0,.286-1.651h0a7.589,7.589,0,0,0,0-1.14,9.245,9.245,0,0,0-3.083-5.839,27.6,27.6,0,0,0-5.584-3.768,8.111,8.111,0,0,0-2.057-.918,6.838,6.838,0,0,0-2.175-.091,7.624,7.624,0,0,0-2.767.649,3.872,3.872,0,0,0-.975.672,3.73,3.73,0,0,0-.487,1.032A2.929,2.929,0,0,0,755.645,367.025Z" transform="translate(-510.814 -268.753)" opacity="0.1"/>
      <path id="Path_2157" data-name="Path 2157" d="M755.648,362.709a8.469,8.469,0,0,0,.568.807,9.355,9.355,0,0,0,1.3,1.345,10.225,10.225,0,0,0,.877.7,14.513,14.513,0,0,0,1.782,1.066,33.018,33.018,0,0,0,5.715,2.044l3.812,1.106c1.345,1.009,5.782,4.306,6.528,3.893.884-.484-3.95-3.906-3.95-3.906l-.222.168a3.541,3.541,0,0,0,1.237-2.353,11.949,11.949,0,0,0,.04-4.834,5.712,5.712,0,0,0-2.773-3.816,6.637,6.637,0,0,1-1.879-1.059,1.287,1.287,0,0,1-.182-.245.865.865,0,0,1-.074-.131,1.736,1.736,0,0,0-.2-.393c-.266-.306-.746-.215-1.146-.165h-.128a1.592,1.592,0,0,1-.219,0c-1.432.034-2.82-.763-4.269-.763-1.59,0-2.942.918-4.34,1.543-.282.128-.551.245-.8.363a3.468,3.468,0,0,0-2.185,2.31A2.9,2.9,0,0,0,755.648,362.709Z" transform="translate(-510.817 -264.691)" fill="#02b9b5"/>
      <path id="Path_2158" data-name="Path 2158" d="M789.617,358.44a.7.7,0,0,0-.087.336.672.672,0,0,0,.239.514,1.18,1.18,0,0,0,.6.212,4.354,4.354,0,0,0,.471.037,1.261,1.261,0,0,0,.619-.1.743.743,0,0,0,.108-.071,1.284,1.284,0,0,1-.182-.245c-.037.027-.074.02-.215,0a3.543,3.543,0,0,1-.773-.131.89.89,0,0,1-.289-.141.846.846,0,0,1-.272-.417Z" transform="translate(-533.702 -266.191)" opacity="0.1"/>
      <path id="Path_2159" data-name="Path 2159" d="M801.194,396.47a1.815,1.815,0,0,1-.672.245,2.649,2.649,0,0,1-.511.081,2.83,2.83,0,0,1-1.251-.336" transform="translate(-539.829 -291.437)" opacity="0.1"/>
    </g>
  </g>
</svg>
