<svg xmlns="http://www.w3.org/2000/svg" width="21.302" height="16" viewBox="0 0 21.302 16">
  <g id="noun_Announcement_1572017" transform="translate(13 51)">
    <g id="Group_545" data-name="Group 545" transform="translate(-13 -51)">
      <path id="Path_2855" data-name="Path 2855" d="M18.869,972.367c-.085.014-4.584,2.666-4.584,2.666H10.678a.8.8,0,0,0,0,1.6h3.076V980.9H8.3a2.148,2.148,0,0,1,.007-4.265.8.8,0,0,0,0-1.6A3.759,3.759,0,0,0,8.3,982.5h.584l1.59,5.315a.743.743,0,0,0,.673.55h3.327a.831.831,0,0,0,.673-1.058L13.716,982.5h.569l4.34,2.574a.654.654,0,0,0,.7-.021.843.843,0,0,0,.343-.687v-11.2a.779.779,0,0,0-.8-.8Zm4.547,1.325c-.135.008-2.033,1.483-2.033,1.483a.907.907,0,0,0-.167,1.121.687.687,0,0,0,1,.187l1.656-1.333a.884.884,0,0,0,.269-.923.735.735,0,0,0-.72-.534Zm-5.168.8v8.547l-3.076-1.824v-4.9Zm3.475,3.474a.8.8,0,0,0-.673.841.778.778,0,0,0,.747.758h3.785a.8.8,0,0,0,0-1.6s-3.835,0-3.859,0Zm.022,2.924a.754.754,0,0,0-.644.583.878.878,0,0,0,.282.875l1.656,1.333a.687.687,0,0,0,.994-.187.907.907,0,0,0-.166-1.12l-1.656-1.333A.66.66,0,0,0,21.745,980.889ZM10.39,982.5h1.826l1.279,4.265H11.661Z" transform="translate(-5 -972.362)"/>
    </g>
  </g>
</svg>
