<svg xmlns="http://www.w3.org/2000/svg" xmlns:xlink="http://www.w3.org/1999/xlink" width="361.003" height="470.013" viewBox="0 0 361.003 470.013">
  <defs>
    <linearGradient id="linear-gradient" x1="0.5" y1="1" x2="0.5" gradientUnits="objectBoundingBox">
      <stop offset="0" stop-color="gray" stop-opacity="0.251"/>
      <stop offset="0.54" stop-color="gray" stop-opacity="0.122"/>
      <stop offset="1" stop-color="gray" stop-opacity="0.102"/>
    </linearGradient>
    <linearGradient id="linear-gradient-2" x1="0.5" y1="1" x2="0.5" y2="0" xlink:href="#linear-gradient"/>
    <linearGradient id="linear-gradient-3" x1="-0.001" y1="0.5" x2="1" y2="0.5" xlink:href="#linear-gradient"/>
  </defs>
  <g id="Group_513" data-name="Group 513" transform="translate(0.5 -170.487)">
    <path id="Subtraction_15" data-name="Subtraction 15" d="M-2933.5-11468.989h-361v-437.891c.493.2,1.021.419,1.633.669l.006,0,.228.093c14.969,6.095,27.324,10.886,38.883,15.077,14.308,5.181,27.333,9.425,39.821,12.977,29.692,8.435,56.689,12.992,82.533,13.934,2.781.1,5.729.155,8.761.155,55.025,0,104.376-17.629,132.014-47.158a85.132,85.132,0,0,1,25.765-18.56,110.427,110.427,0,0,1,31.359-9.31v470.011Z" transform="translate(3294 12109.488)" fill="#6c63ff" opacity="0.1"/>
    <path id="Subtraction_14" data-name="Subtraction 14" d="M-2933.5-11477.279h-361v-432.093l1.453.6.69.283c1.631.668,3.317,1.359,5.024,2.055,19.022,7.742,44.105,17.6,69.445,25.145,31,9.231,58.889,14.185,85.263,15.144,2.733.1,5.56.152,8.4.152,52.8,0,100.154-16.917,126.674-45.253a83.029,83.029,0,0,1,28.806-19.632A111.842,111.842,0,0,1-2933.5-11939v461.721Z" transform="translate(3294 12117.779)" fill="#6c63ff" opacity="0.1"/>
    <g id="undraw_post_online_dkuk" transform="translate(89.907 180.95)">
      <path id="Path_2263" data-name="Path 2263" d="M585.794,129.612h-.843V84.147A18.289,18.289,0,0,0,566.517,66H463.259a18.294,18.294,0,0,0-18.434,18.147v18.846h-.246a1.077,1.077,0,0,0-1.085,1.066v9.073a1.077,1.077,0,0,0,1.085,1.066h.265v9.266h-.333a1.074,1.074,0,0,0-1.081,1.066v17.349a1.077,1.077,0,0,0,1.081,1.07h.333v6.8h-.287a1.074,1.074,0,0,0-1.085,1.066V168.34a1.074,1.074,0,0,0,1.085,1.066h.287V328.333a18.289,18.289,0,0,0,18.434,18.147H566.513a18.294,18.294,0,0,0,18.434-18.147V163.614h.847a1.077,1.077,0,0,0,1.085-1.066v-31.87a1.077,1.077,0,0,0-1.085-1.066Z" transform="translate(-374.322 -65.95)" fill="url(#linear-gradient)"/>
      <g id="Group_442" data-name="Group 442" transform="translate(71.149 1.94)" opacity="0.9">
        <rect id="Rectangle_754" data-name="Rectangle 754" width="4.072" height="33.579" rx="2.036" transform="translate(135.476 62.837)" fill="#e5e7eb"/>
        <rect id="Rectangle_755" data-name="Rectangle 755" width="2.287" height="11.054" rx="1.144" transform="translate(0.083 36.531)" fill="#e5e7eb"/>
        <rect id="Rectangle_756" data-name="Rectangle 756" width="2.578" height="19.239" rx="1.289" transform="translate(0 56.769)" fill="#e5e7eb"/>
        <rect id="Rectangle_757" data-name="Rectangle 757" width="2.454" height="19.406" rx="1.227" transform="translate(0.042 82.741)" fill="#e5e7eb"/>
        <rect id="Rectangle_758" data-name="Rectangle 758" width="136.296" height="277.005" rx="15" transform="translate(1.376)" fill="#fff"/>
        <rect id="Rectangle_759" data-name="Rectangle 759" width="19.035" height="3.864" rx="1.932" transform="translate(56.379 8.272)" fill="#e5e7eb"/>
        <circle id="Ellipse_153" data-name="Ellipse 153" cx="2.193" cy="2.193" r="2.193" transform="translate(78.288 8.011)" fill="#e5e7eb"/>
      </g>
      <path id="Path_2264" data-name="Path 2264" d="M583.378,90.09h-15.6v1.89a8.914,8.914,0,0,1-8.915,8.911H509.117A8.915,8.915,0,0,1,500.2,91.98V90.09H485.564a10.824,10.824,0,0,0-10.824,10.824V341.841a10.824,10.824,0,0,0,10.824,10.824h97.814A10.824,10.824,0,0,0,594.2,341.841V100.914A10.824,10.824,0,0,0,583.378,90.09Z" transform="translate(-393.795 -80.933)" fill="#ececf3"/>
      <ellipse id="Ellipse_154" data-name="Ellipse 154" cx="21.621" cy="3.656" rx="21.621" ry="3.656" transform="translate(-34.871 281.259)" fill="#6c63ff"/>
      <path id="Path_2265" data-name="Path 2265" d="M337.99,787.265a6.33,6.33,0,0,0,2.06-3.111,2.772,2.772,0,0,0-1.44-3.168c-1.323-.507-2.737.408-3.807,1.335s-2.3,1.985-3.7,1.788a5.633,5.633,0,0,0,1.743-5.293,2.181,2.181,0,0,0-.484-1.07c-.733-.786-2.064-.45-2.945.17-2.794,1.966-3.576,5.766-3.592,9.187a17.3,17.3,0,0,1-.053-3.781,3.9,3.9,0,0,0-1.418-3.349,4.307,4.307,0,0,0-2.17-.507,4.491,4.491,0,0,0-3.512,1c-1.07,1.134-.79,3.059.136,4.318a13.582,13.582,0,0,0,3.641,2.915,8.062,8.062,0,0,1,2.6,2.48,2.231,2.231,0,0,1,.193.442h7.875A22.082,22.082,0,0,0,337.99,787.265Z" transform="translate(-342.298 -508.331)" fill="#6c63ff"/>
      <g id="Group_443" data-name="Group 443" transform="translate(221.823 255.685)" opacity="0.4">
        <ellipse id="Ellipse_155" data-name="Ellipse 155" cx="12.34" cy="2.087" rx="12.34" ry="2.087" transform="translate(0 7.03)" fill="#6c63ff"/>
        <path id="Path_2266" data-name="Path 2266" d="M874.724,747.888a3.607,3.607,0,0,0,1.18-1.773,1.584,1.584,0,0,0-.824-1.811,2.325,2.325,0,0,0-2.174.756c-.612.522-1.312,1.134-2.113,1.021a3.21,3.21,0,0,0,.994-3.024,1.232,1.232,0,0,0-.276-.609c-.42-.45-1.18-.257-1.678.095-1.6,1.134-2.042,3.293-2.053,5.244a10.043,10.043,0,0,1-.026-2.159,2.237,2.237,0,0,0-.813-1.913,2.465,2.465,0,0,0-1.236-.287,2.575,2.575,0,0,0-2.007.567,2,2,0,0,0,.079,2.465,7.711,7.711,0,0,0,2.079,1.664,4.647,4.647,0,0,1,1.482,1.414,1.288,1.288,0,0,1,.11.253h4.5A12.473,12.473,0,0,0,874.724,747.888Z" transform="translate(-857.284 -742.185)" fill="#6c63ff"/>
      </g>
      <g id="Group_444" data-name="Group 444" transform="translate(32.826 232.234)" opacity="0.4">
        <ellipse id="Ellipse_156" data-name="Ellipse 156" cx="12.34" cy="2.087" rx="12.34" ry="2.087" transform="translate(0 7.031)" fill="#02b9b5"/>
        <path id="Path_2267" data-name="Path 2267" d="M374.814,685.857a3.565,3.565,0,0,0,1.176-1.777,1.577,1.577,0,0,0-.824-1.807,2.316,2.316,0,0,0-2.17.756,2.926,2.926,0,0,1-2.113,1.021,3.229,3.229,0,0,0,.994-3.024,1.278,1.278,0,0,0-.276-.612c-.42-.446-1.18-.253-1.682.1-1.6,1.134-2.042,3.289-2.049,5.24a9.8,9.8,0,0,1-.03-2.159,2.166,2.166,0,0,0-.809-1.89,2.443,2.443,0,0,0-1.24-.291,2.554,2.554,0,0,0-2,.571,2,2,0,0,0,.079,2.465,7.826,7.826,0,0,0,2.076,1.664,4.571,4.571,0,0,1,1.482,1.414,1.557,1.557,0,0,1,.113.253h4.5A12.586,12.586,0,0,0,374.814,685.857Z" transform="translate(-357.37 -680.153)" fill="#02b9b5"/>
      </g>
      <rect id="Rectangle_760" data-name="Rectangle 760" width="19.315" height="19.315" transform="translate(90.109 29.16)" fill="#d6d8e0"/>
      <rect id="Rectangle_761" data-name="Rectangle 761" width="40.467" height="3.678" transform="translate(123.676 30.54)" fill="#d6d8e0"/>
      <rect id="Rectangle_762" data-name="Rectangle 762" width="66.678" height="3.678" transform="translate(123.676 36.978)" fill="#d6d8e0"/>
      <rect id="Rectangle_763" data-name="Rectangle 763" width="66.678" height="3.678" transform="translate(123.676 43.417)" fill="#d6d8e0"/>
      <rect id="Rectangle_764" data-name="Rectangle 764" width="19.315" height="19.315" transform="translate(90.256 64.569)" fill="#d6d8e0"/>
      <rect id="Rectangle_765" data-name="Rectangle 765" width="40.467" height="3.678" transform="translate(123.824 65.949)" fill="#d6d8e0"/>
      <rect id="Rectangle_766" data-name="Rectangle 766" width="66.678" height="3.678" transform="translate(123.824 72.387)" fill="#d6d8e0"/>
      <rect id="Rectangle_767" data-name="Rectangle 767" width="66.678" height="3.678" transform="translate(123.824 78.822)" fill="#d6d8e0"/>
      <rect id="Rectangle_768" data-name="Rectangle 768" width="19.315" height="19.315" transform="translate(90.404 99.978)" fill="#d6d8e0"/>
      <rect id="Rectangle_769" data-name="Rectangle 769" width="40.467" height="3.678" transform="translate(123.975 101.354)" fill="#d6d8e0"/>
      <rect id="Rectangle_770" data-name="Rectangle 770" width="66.678" height="3.678" transform="translate(123.975 107.792)" fill="#d6d8e0"/>
      <rect id="Rectangle_771" data-name="Rectangle 771" width="66.678" height="3.678" transform="translate(123.975 114.23)" fill="#d6d8e0"/>
      <rect id="Rectangle_772" data-name="Rectangle 772" width="19.315" height="19.315" transform="translate(90.551 135.382)" fill="#d6d8e0"/>
      <rect id="Rectangle_773" data-name="Rectangle 773" width="40.467" height="3.678" transform="translate(124.122 136.762)" fill="#d6d8e0"/>
      <rect id="Rectangle_774" data-name="Rectangle 774" width="66.678" height="3.678" transform="translate(124.122 143.201)" fill="#d6d8e0"/>
      <rect id="Rectangle_775" data-name="Rectangle 775" width="66.678" height="3.678" transform="translate(124.122 149.639)" fill="#d6d8e0"/>
      <rect id="Rectangle_776" data-name="Rectangle 776" width="19.315" height="19.315" transform="translate(90.702 170.791)" fill="#d6d8e0"/>
      <rect id="Rectangle_777" data-name="Rectangle 777" width="40.467" height="3.678" transform="translate(124.27 172.171)" fill="#d6d8e0"/>
      <rect id="Rectangle_778" data-name="Rectangle 778" width="66.678" height="3.678" transform="translate(124.27 178.609)" fill="#d6d8e0"/>
      <rect id="Rectangle_779" data-name="Rectangle 779" width="66.678" height="3.678" transform="translate(124.27 185.048)" fill="#d6d8e0"/>
      <rect id="Rectangle_780" data-name="Rectangle 780" width="19.315" height="19.315" transform="translate(90.85 206.2)" fill="#d6d8e0"/>
      <rect id="Rectangle_781" data-name="Rectangle 781" width="40.467" height="3.678" transform="translate(124.417 207.58)" fill="#d6d8e0"/>
      <rect id="Rectangle_782" data-name="Rectangle 782" width="66.678" height="3.678" transform="translate(124.417 214.018)" fill="#d6d8e0"/>
      <rect id="Rectangle_783" data-name="Rectangle 783" width="66.678" height="3.678" transform="translate(124.417 220.456)" fill="#d6d8e0"/>
      <rect id="Rectangle_784" data-name="Rectangle 784" width="19.315" height="19.315" transform="translate(90.997 241.608)" fill="#d6d8e0"/>
      <rect id="Rectangle_785" data-name="Rectangle 785" width="40.467" height="3.678" transform="translate(124.565 242.988)" fill="#d6d8e0"/>
      <rect id="Rectangle_786" data-name="Rectangle 786" width="66.678" height="3.678" transform="translate(124.565 249.427)" fill="#d6d8e0"/>
      <rect id="Rectangle_787" data-name="Rectangle 787" width="66.678" height="3.678" transform="translate(124.565 255.865)" fill="#d6d8e0"/>
      <rect id="Rectangle_788" data-name="Rectangle 788" width="164.624" height="40.924" transform="translate(58.364 87.4)" fill="url(#linear-gradient-2)"/>
      <rect id="Rectangle_789" data-name="Rectangle 789" width="163.244" height="39.087" transform="translate(59.282 88.322)" fill="#fff"/>
      <rect id="Rectangle_790" data-name="Rectangle 790" width="19.315" height="19.315" transform="translate(90.782 98.208)" fill="#6c63ff"/>
      <g id="Group_445" data-name="Group 445" transform="translate(124.353 99.588)" opacity="0.5">
        <rect id="Rectangle_791" data-name="Rectangle 791" width="40.467" height="3.678" fill="#8f91b6"/>
        <rect id="Rectangle_792" data-name="Rectangle 792" width="66.678" height="3.678" transform="translate(0 6.438)" fill="#8f91b6"/>
        <rect id="Rectangle_793" data-name="Rectangle 793" width="66.678" height="3.678" transform="translate(0 12.877)" fill="#8f91b6"/>
      </g>
      <path id="Path_2268" data-name="Path 2268" d="M474.95,387.261a3.363,3.363,0,0,0-3.973-.6A5.835,5.835,0,0,0,469,389.329c-.707,1.512-1.743,2.926-2.06,4.559-.873,4.5-4.457,8-5.894,12.351a24.535,24.535,0,0,1-1.569,4.639,14.755,14.755,0,0,1-1.285,1.769,49.83,49.83,0,0,0-4.915,7.5,6.032,6.032,0,0,0-2.238,1.391,7.723,7.723,0,0,1-3.024,1.433,2.854,2.854,0,0,0-1.24.454c-.522.435-.594,1.217-1.017,1.743a2.714,2.714,0,0,1-1.134.756c0-.132-.019-.265-.023-.4-.019-.7-.03-1.4-.03-2.106a7.916,7.916,0,0,0-.023-10.276,15.5,15.5,0,0,1,.435-3.247,1.442,1.442,0,0,0-.306-1.49c-.208-.163-.476-.223-.7-.378a3.047,3.047,0,0,1-.756-.96,4.083,4.083,0,0,0-5.134-1.312c-1.365.718-2.193,2.155-3.4,3.13-.62.5-1.335.873-1.955,1.376a8.117,8.117,0,0,0-2.529,4.113,23.557,23.557,0,0,0-.688,4.854,4.383,4.383,0,0,0,.057,1.474,3.9,3.9,0,0,0,.556,1.134,12.71,12.71,0,0,0,4.7,4.48,1.833,1.833,0,0,1,0,.291,2.091,2.091,0,0,1-.083.45l-.219-.06a8.678,8.678,0,0,1-2.408-.563c-1.24-.7-1.614-2.393-2.8-3.172a2.144,2.144,0,0,0-.318-.17,21.216,21.216,0,0,0-1.217-6.3,7.854,7.854,0,0,1-.722-2.987,7.343,7.343,0,0,1,.911-2.7,68.714,68.714,0,0,0,3.4-9.312q.941-2.975,1.89-5.954a9.386,9.386,0,0,0,1.66-1.58,8.427,8.427,0,0,0,1.924-4.132,5.852,5.852,0,0,0-1.062-4.37,2.525,2.525,0,0,0-1.777-1.089,2.31,2.31,0,0,0-1.66.756,7.379,7.379,0,0,0-1.421,2.442,10.9,10.9,0,0,0-1.187,4.571c.049,1.316.541,2.786-.227,3.856a92.23,92.23,0,0,0-6.4,11.368,20.335,20.335,0,0,0-1.293,2.85,15.879,15.879,0,0,0-.677,4.915,65.9,65.9,0,0,0,.832,9.315,11.97,11.97,0,0,0,1.1,4.083,17.123,17.123,0,0,0-.677,4.6,2.62,2.62,0,0,0,.166,1.055,4.355,4.355,0,0,0,.835,1.051,4.707,4.707,0,0,1,1.134,3.72,10.551,10.551,0,0,0,.336,3.728c.756,3.357,1.512,6.711,2.117,10.094a6.456,6.456,0,0,1,.144,1.921,11.331,11.331,0,0,0-.514,2.7,10.228,10.228,0,0,1,.242,1.293,3.194,3.194,0,0,1-.227.968c-.862,2.507-3.179,8.253-3.153,10.907l.6-.144c-.609,3.444-2.034,6.737-2.782,10.17a34.025,34.025,0,0,0-.7,7.606,28.227,28.227,0,0,1-.06,3.44c-.117,1.017-.378,2.011-.522,3.024a27.406,27.406,0,0,0-.181,4.094,41.8,41.8,0,0,0,.378,6.427c.578,3.629-.435,7.236-.711,10.9a65.5,65.5,0,0,1-.87,7.644c-.208,1.066-.469,2.125-.612,3.2-.423,3.2.193,6.495-.473,9.652-.314,1.478-.873,3.138-.049,4.4.261.4.635.707.919,1.089a1.384,1.384,0,0,1,.265,1.334c-.163.348-.541.575-.635.945-.151.582.457,1.058,1,1.308l.155.06a1.4,1.4,0,0,0,.295,1.134,2.4,2.4,0,0,0,1.161.6l7.138,2.162a9.524,9.524,0,0,0,4.915.567,1.236,1.236,0,0,0,.284.612,2.4,2.4,0,0,0,1.161.6l7.085,2.147c1.822.552,3.822,1.1,5.573.348a3.165,3.165,0,0,0,1.278-.964,3.372,3.372,0,0,0,.454-2.824,2.3,2.3,0,0,0-.688-1.263,3.024,3.024,0,0,0-1.648-.541,3.331,3.331,0,0,1-1.444-.378,1.039,1.039,0,0,1-.329-.344q.612-.6,1.187-1.255c-.31-.106-.42-.552-.45-.877-.45-4.816,1.365-9.523,2.053-14.309a30.621,30.621,0,0,0,.181-7.251c-.083-.911-.208-1.818-.246-2.733-.178-4.763,2.1-9.346,2.019-14.113-.038-2.23,1.134-4.431,1.705-6.589a23.852,23.852,0,0,0,.526-5.9l.091-15.6a19.516,19.516,0,0,0-.673-6.261,7.939,7.939,0,0,1-.272-3.425c1.924-.851,3.747-2.11,5.8-1.89.548-1.456-.1-6.306-.616-7.777a33.442,33.442,0,0,1-1.134-18.011c.465-2.151-.174-4.438.344-6.582a3.981,3.981,0,0,1,.563-1.414,1.512,1.512,0,0,1,1.3-.684c0-1.312-.026-2.646-.113-3.977a9.452,9.452,0,0,0,2.106-2.423,37.366,37.366,0,0,0,2.563-6.075c1.387-3.629,3.281-7.036,4.873-10.586s1.747-7.433,3.024-11.107a8.347,8.347,0,0,1,4.064-4.68,6.482,6.482,0,0,0,2.11-1.27,3.4,3.4,0,0,0,.733-1.8,4.767,4.767,0,0,0-1.217-4.023ZM430.718,543.447c.155-.17.306-.34.45-.526-.476-.076-1.059-.423-1.07-.907a5.018,5.018,0,0,1,.31-1.418,5.67,5.67,0,0,0,.106-2.518c-.106-.586-.3-1.134-.423-1.732a16.179,16.179,0,0,1-.227-1.958,32.4,32.4,0,0,0-1.376-6.941c-.684-2.189.253-4.4.5-6.684a13.177,13.177,0,0,1,.442-3.214c.223-.6.59-1.134.813-1.747a7.994,7.994,0,0,0-.106-4.427c2.238-4.057,2.979-8.9,3.822-13.463q.711-3.845,1.422-7.686a7.488,7.488,0,0,1,1.134-3.244,39.856,39.856,0,0,1,.862,10.336,15.344,15.344,0,0,0,.038,3.025c.174,1.1.631,2.14.9,3.221.59,2.385.246,4.892.378,7.346.049.991.178,1.981.219,2.972.185,4.382-1.282,8.642-2.73,12.782a47.441,47.441,0,0,0-1.512,8.079c-.4,2.544-.8,5.092-1,7.659-.061.783-.11,1.588-.2,2.382a6.216,6.216,0,0,0-.737-.117,3.332,3.332,0,0,1-1.444-.378,1.683,1.683,0,0,1-.556-.843Z" transform="translate(-357.924 -264.139)" fill="url(#linear-gradient-3)"/>
      <path id="Path_2269" data-name="Path 2269" d="M471.826,815.109a3.066,3.066,0,0,1,1.648.537,2.3,2.3,0,0,1,.688,1.255,3.342,3.342,0,0,1-.454,2.809,3.139,3.139,0,0,1-1.278.953c-1.75.756-3.75.208-5.573-.34l-7.138-2.151a2.4,2.4,0,0,1-1.161-.6,1.573,1.573,0,0,1-.03-1.834,3.58,3.58,0,0,1,1.512-1.206,17,17,0,0,1,7.183-1.376c.907-.019,1.8-.216,2.416.484.325.378.268.779.756,1.1a3.275,3.275,0,0,0,1.429.371Z" transform="translate(-383.539 -530.614)" fill="#3f3d56"/>
      <path id="Path_2270" data-name="Path 2270" d="M436.156,804.727a3.024,3.024,0,0,1,1.648.533,2.332,2.332,0,0,1,.688,1.255,3.338,3.338,0,0,1-.454,2.809,3.145,3.145,0,0,1-1.278.956c-1.75.756-3.75.2-5.573-.344l-7.138-2.151a2.367,2.367,0,0,1-1.161-.6,1.573,1.573,0,0,1-.03-1.834,3.556,3.556,0,0,1,1.512-1.206,16.955,16.955,0,0,1,7.164-1.376c.9,0,1.8-.216,2.416.484.325.378.268.783.756,1.1A3.33,3.33,0,0,0,436.156,804.727Z" transform="translate(-361.354 -524.16)" fill="#3f3d56"/>
      <path id="Path_2271" data-name="Path 2271" d="M438.863,600.9a87.889,87.889,0,0,0-12.657-.355,2.483,2.483,0,0,0-.82.129c-.93.378-1.074,1.6-1.164,2.593-.355,4.034-2.136,7.8-3.024,11.754a33.557,33.557,0,0,0-.7,7.561,27.781,27.781,0,0,1-.06,3.4c-.117,1.013-.378,2-.522,3.024a27.05,27.05,0,0,0-.181,4.068,41.27,41.27,0,0,0,.378,6.378c.578,3.607-.435,7.183-.711,10.827a64.759,64.759,0,0,1-.87,7.6c-.208,1.059-.469,2.11-.612,3.179-.423,3.179.193,6.457-.473,9.591-.314,1.467-.873,3.115-.049,4.37.261.4.635.7.919,1.081a1.372,1.372,0,0,1,.265,1.327c-.163.344-.541.571-.635.938-.151.578.457,1.055,1,1.3a10.445,10.445,0,0,0,12.158-3.006c-.476-.076-1.059-.42-1.07-.9a4.965,4.965,0,0,1,.31-1.41,5.6,5.6,0,0,0,.106-2.5c-.106-.578-.3-1.134-.423-1.72a15.932,15.932,0,0,1-.227-1.943,31.989,31.989,0,0,0-1.376-6.9c-.684-2.174.253-4.374.5-6.642a13.02,13.02,0,0,1,.442-3.191c.223-.6.59-1.134.813-1.735a7.887,7.887,0,0,0-.106-4.4c2.238-4.034,2.979-8.839,3.822-13.376l1.422-7.637a7.377,7.377,0,0,1,1.134-3.221,39.352,39.352,0,0,1,.862,10.272,15.122,15.122,0,0,0,.038,2.983c.174,1.093.631,2.125.9,3.2.59,2.367.246,4.858.378,7.3.049.983.178,1.966.219,2.953.185,4.351-1.282,8.586-2.73,12.7a46.9,46.9,0,0,0-1.512,8.026c-.4,2.529-.8,5.058-1,7.61-.185,2.344-.265,4.881-1.724,6.722a12.365,12.365,0,0,0,4.268,2.045,7.916,7.916,0,0,0,5.266-1.017,16.635,16.635,0,0,0,4.159-3.539c-.31-.106-.42-.552-.45-.873-.45-4.782,1.365-9.451,2.053-14.215a30.244,30.244,0,0,0,.181-7.206c-.083-.9-.208-1.8-.246-2.711-.178-4.733,2.1-9.289,2.019-14.022-.038-2.215,1.134-4.4,1.705-6.548a23.491,23.491,0,0,0,.525-5.856l.091-15.5a19.287,19.287,0,0,0-.673-6.223c-.832-2.378.117-5.115.261-7.629A31.461,31.461,0,0,1,438.863,600.9Z" transform="translate(-357.862 -397.789)" fill="#3f3d56"/>
      <path id="Path_2272" data-name="Path 2272" d="M510.126,427.139A49.425,49.425,0,0,1,515.914,418a14.907,14.907,0,0,0,1.285-1.754,24.246,24.246,0,0,0,1.569-4.609c1.437-4.325,5.021-7.8,5.894-12.272.318-1.622,1.353-3.024,2.06-4.537a5.721,5.721,0,0,1,1.973-2.646,3.363,3.363,0,0,1,3.973.6,4.711,4.711,0,0,1,1.214,3.988,3.331,3.331,0,0,1-.733,1.792,6.57,6.57,0,0,1-2.11,1.266,8.279,8.279,0,0,0-4.064,4.646c-1.263,3.652-1.422,7.516-3.024,11.035s-3.486,6.9-4.873,10.506a36.207,36.207,0,0,1-2.563,6.049,7.446,7.446,0,0,1-5.126,3.758,12.876,12.876,0,0,0-.635-4.023C510.3,430.3,509.438,428.53,510.126,427.139Z" transform="translate(-415.643 -268.563)" fill="#e6a6af"/>
      <path id="Path_2273" data-name="Path 2273" d="M435.682,427.351a20.963,20.963,0,0,0-1.225-7.856,7.778,7.778,0,0,1-.722-2.968,7.252,7.252,0,0,1,.911-2.684,67.981,67.981,0,0,0,3.4-9.255l1.89-5.913a9.454,9.454,0,0,0,1.66-1.569A8.37,8.37,0,0,0,443.523,393a5.792,5.792,0,0,0-1.062-4.344,2.51,2.51,0,0,0-1.777-1.077,2.287,2.287,0,0,0-1.66.756,7.311,7.311,0,0,0-1.422,2.427,10.768,10.768,0,0,0-1.187,4.537c.049,1.308.541,2.767-.227,3.83a91.585,91.585,0,0,0-6.4,11.293,20.109,20.109,0,0,0-1.293,2.832,15.7,15.7,0,0,0-.677,4.892,65.059,65.059,0,0,0,.832,9.255c.265,1.921.62,4.015,2.076,5.293A30.943,30.943,0,0,1,435.682,427.351Z" transform="translate(-364.608 -265.955)" fill="#e6a6af"/>
      <circle id="Ellipse_157" data-name="Ellipse 157" cx="7.845" cy="7.845" r="7.845" transform="translate(72.851 147.185)" fill="#e6a6af"/>
      <path id="Path_2274" data-name="Path 2274" d="M458.11,489.5a10.466,10.466,0,0,1-1.69,3.913c-.45.756-1.017,1.561-1.89,1.645a37.808,37.808,0,0,0,7.123,2.866,8.1,8.1,0,0,0,2.6.42,6.364,6.364,0,0,0,2.166-.556,10.756,10.756,0,0,0,6.1-7.183,14.154,14.154,0,0,1-2.911-.223,2.148,2.148,0,0,1-1.429-.7,2.3,2.3,0,0,1-.295-1.267q-.057-1.962,0-3.924a15.5,15.5,0,0,0-5.7.7c-.756.246-1.512.544-2.287.737-.476.117-1.788,0-2.14.276C457.229,486.62,458.25,488.533,458.11,489.5Z" transform="translate(-381.226 -326.206)" fill="#e6a6af"/>
      <path id="Path_2275" data-name="Path 2275" d="M447.023,491.921a4.934,4.934,0,0,0-3.75-4.378,8.674,8.674,0,0,1-2.408-.56c-1.24-.692-1.614-2.378-2.8-3.153a3.312,3.312,0,0,0-3.917.639,8.437,8.437,0,0,0-1.985,3.735,18.806,18.806,0,0,0-1.017,5.728,2.6,2.6,0,0,0,.166,1.051,4.412,4.412,0,0,0,.836,1.047,4.642,4.642,0,0,1,1.134,3.69,10.45,10.45,0,0,0,.336,3.709c.756,3.331,1.512,6.665,2.117,10.026a6.383,6.383,0,0,1,.144,1.89,11.185,11.185,0,0,0-.514,2.68,10.171,10.171,0,0,1,.242,1.289,3.125,3.125,0,0,1-.227.956c-.862,2.5-3.179,8.2-3.153,10.839,4.026-1.032,9.962-1.263,14.117-1.278a29.659,29.659,0,0,1,3.429.151c2.733.291,5.531,1.089,8.181.352,2.457-.684,4.639-2.646,7.183-2.4.548-1.448-.1-6.268-.616-7.727a33.019,33.019,0,0,1-1.134-17.893c.465-2.14-.174-4.408.344-6.537a3.917,3.917,0,0,1,.563-1.406,1.512,1.512,0,0,1,1.3-.681,48.162,48.162,0,0,0-.945-10.181c-.253-1.191-.779-2.6-1.977-2.8-1.081-.181-1.992.73-2.858,1.4a7.811,7.811,0,0,1-3.024,1.422,2.847,2.847,0,0,0-1.24.45c-.522.431-.594,1.21-1.017,1.735-.756.941-2.446.858-2.983,1.943a6.8,6.8,0,0,0-.287.994,3.637,3.637,0,0,1-1.244,1.607A7.017,7.017,0,0,1,447.023,491.921Z" transform="translate(-366.68 -323.863)" fill="#02b9b5"/>
      <path id="Path_2276" data-name="Path 2276" d="M465.416,446.423a1.435,1.435,0,0,0-.306-1.482c-.208-.163-.476-.223-.7-.378a3.024,3.024,0,0,1-.756-.956,4.106,4.106,0,0,0-5.145-1.3c-1.365.715-2.193,2.144-3.4,3.111-.62.5-1.335.87-1.955,1.365a8.068,8.068,0,0,0-2.529,4.091,23.278,23.278,0,0,0-.684,4.828,4.337,4.337,0,0,0,.057,1.467,3.852,3.852,0,0,0,.556,1.115,12.578,12.578,0,0,0,4.953,4.582,7.681,7.681,0,0,0,6.6.117,1.176,1.176,0,0,0,.507-.408,1.422,1.422,0,0,0,.076-.873,5.992,5.992,0,0,1,.662-3.342c.378-.756.941-1.406,1.248-2.193a7.789,7.789,0,0,0,.355-2.714A29.091,29.091,0,0,1,465.416,446.423Z" transform="translate(-378.347 -299.733)" fill="#2d293d"/>
      <rect id="Rectangle_794" data-name="Rectangle 794" width="19.315" height="19.315" transform="translate(90.702 98.439)" fill="#5400cb"/>
    </g>
  </g>
</svg>
