<svg xmlns="http://www.w3.org/2000/svg" width="15.388" height="16" viewBox="0 0 15.388 16">
  <g id="noun_date_1272092" transform="translate(-28 49.75)">
    <path id="Path_2856" data-name="Path 2856" d="M8.1,20.25H19.29a2.1,2.1,0,0,0,2.1-2.1V8.01a2.1,2.1,0,0,0-2.1-2.1h-1.4V4.949a.7.7,0,0,0-1.4,0v.962H10.9V4.949a.7.7,0,0,0-1.4,0v.962H8.1A2.1,2.1,0,0,0,6,8.01V18.152A2.1,2.1,0,0,0,8.1,20.25Zm11.191-1.4H8.1a.7.7,0,0,1-.7-.7v-5.77h12.59v5.77A.7.7,0,0,1,19.29,18.851ZM8.1,7.31H9.5V8.1a.7.7,0,0,0,1.4,0V7.31h5.6V8.1a.7.7,0,0,0,1.4,0V7.31h1.4a.7.7,0,0,1,.7.7v2.973H7.4V8.01A.7.7,0,0,1,8.1,7.31Z" transform="translate(22 -54)"/>
  </g>
</svg>
