<svg xmlns="http://www.w3.org/2000/svg" width="28" height="28" viewBox="0 0 28 28">
  <g id="Group_536" data-name="Group 536" transform="translate(-75 -4172)">
    <circle id="Ellipse_219" data-name="Ellipse 219" cx="14" cy="14" r="14" transform="translate(75 4172)" fill="#dbdceb"/>
    <g id="Group_425" data-name="Group 425" transform="translate(82.75 4178.5)">
      <path id="Path_178" data-name="Path 178" d="M21.448,12.623a.538.538,0,0,0,.493.332h3.911a2.394,2.394,0,0,0,4.737,0h3.92a.249.249,0,0,0,.081-.009.546.546,0,0,0,.431-.341.527.527,0,0,0-.135-.565l-.027-.027a2.516,2.516,0,0,1-.475-.807,8.013,8.013,0,0,1-.5-3.041c0-3-1.13-4.575-2.072-5.374a4.76,4.76,0,0,0-1.669-.915A2.12,2.12,0,0,0,29.693.6,1.8,1.8,0,0,0,28.24,0,1.819,1.819,0,0,0,26.8.6a2.092,2.092,0,0,0-.458,1.3,4.809,4.809,0,0,0-1.669.9,6.773,6.773,0,0,0-2.09,5.347,7.886,7.886,0,0,1-.511,3.014,3.3,3.3,0,0,1-.493.87h0A.539.539,0,0,0,21.448,12.623Zm6.782,1.3a1.337,1.337,0,0,1-1.274-.969H29.5A1.337,1.337,0,0,1,28.231,13.923ZM23.655,8.146c0-4.827,3.158-5.284,3.283-5.3a.549.549,0,0,0,.368-.206.557.557,0,0,0,.108-.413,1.328,1.328,0,0,1,.2-.951.727.727,0,0,1,.628-.224.769.769,0,0,1,.637.224,1.312,1.312,0,0,1,.188.915.524.524,0,0,0,.1.413.54.54,0,0,0,.368.215,3.5,3.5,0,0,1,1.606.789,5.657,5.657,0,0,1,1.687,4.557,8.458,8.458,0,0,0,.7,3.723H22.938A8.861,8.861,0,0,0,23.655,8.146Z" transform="translate(-21.409)" fill="#474974"/>
    </g>
  </g>
</svg>
