<svg xmlns="http://www.w3.org/2000/svg" width="361.002" height="449.577" viewBox="0 0 361.002 449.577">
  <g id="Group_514" data-name="Group 514" transform="translate(0.5 -190.924)">
    <g id="Group_507" data-name="Group 507">
      <path id="Subtraction_22" data-name="Subtraction 22" d="M-2661.5-11502.065h-361v-363.927c28.644-11.554,55.838-21.973,83.135-31.854,59.034-21.375,122.324-41.154,185.156-41.154,4.98,0,10,.128,14.909.381a197.575,197.575,0,0,1,41.385,6.256c14.083,3.823,26.334,9.313,36.414,16.315v413.982h0Z" transform="translate(3022 12142.566)" fill="#6c63ff" opacity="0.1"/>
      <path id="Subtraction_20" data-name="Subtraction 20" d="M-2418.5-11512.456h-361v-356.193c27.777-11.216,54.11-21.311,80.5-30.862,56.649-20.51,117.38-39.488,177.659-39.488,4.773,0,9.585.123,14.3.366,17.241.89,32.876,3.588,46.472,8.021a114.711,114.711,0,0,1,20.8,9.016,86.651,86.651,0,0,1,17.726,13.1c1.19,1.153,2.38,2.384,3.536,3.655v392.389Z" transform="translate(2779 12152.957)" fill="#6c63ff" opacity="0.1"/>
      <path id="Path_2782" data-name="Path 2782" d="M810.969,334.955s-4.138-1.478-6.8,4.433a116.57,116.57,0,0,1-6.8,12.412l2.364.591s.591-4.137,2.069-4.729l-.591,5.32s17.732,6.206,25.711-.591l-.3-2.069s1.182.3,1.182,2.069l.887-.887a15.885,15.885,0,0,0-3.546-4.137c-1.746-1.552-2.346-4.5-2.552-6.35a7.684,7.684,0,0,0-1.769-4.185C819.065,334.785,815.845,332.607,810.969,334.955Z" transform="translate(-566.33 -84.355)" fill="#2f2e41"/>
      <path id="Path_2783" data-name="Path 2783" d="M581.286,381.511l3.869,4.924,2.462-2.814-2.11-3.517Z" transform="translate(-360.947 -80.207)" fill="#fbbebe"/>
      <path id="Path_2784" data-name="Path 2784" d="M574.259,611l-1.407,7.386,3.517,1.759,2.462-1.759V611Z" transform="translate(-355.326 -234.072)" fill="#fbbebe"/>
      <path id="Path_2785" data-name="Path 2785" d="M641.736,611l1.407,7.386-3.517,1.759-2.462-1.759V611Z" transform="translate(-398.183 -234.072)" fill="#fbbebe"/>
      <path id="Path_2786" data-name="Path 2786" d="M583.756,411.733l-4.924,35.173L571.8,478.913l8.442,1.055,6.683-29.9,8.441-25.324L594.307,455l-1.758,24.973h6.331l4.572-33.766,5.056-25.1-.132-9.365Z" transform="translate(-354.623 -101.283)" fill="#2f2e41"/>
      <path id="Path_2787" data-name="Path 2787" d="M745.9,732.987s-1.759-2.11-2.814-1.055a44.482,44.482,0,0,0-3.517,5.276s-5.628,3.166-1.055,3.869,5.979,0,5.979-.352a5.156,5.156,0,0,1,.7-1.407l1.759.352,2.462-.7s1.055-6.481,0-6.23S746.253,734.042,745.9,732.987Z" transform="translate(-525.913 -349.379)" fill="#2f2e41"/>
      <path id="Path_2788" data-name="Path 2788" d="M823.745,732.987s1.759-2.11,2.814-1.055a44.482,44.482,0,0,1,3.517,5.276s5.628,3.166,1.055,3.869-5.979,0-5.979-.352a5.156,5.156,0,0,0-.7-1.407l-1.759.352-2.462-.7s-1.055-6.481,0-6.23S823.393,734.042,823.745,732.987Z" transform="translate(-581.247 -349.379)" fill="#2f2e41"/>
      <ellipse id="Ellipse_214" data-name="Ellipse 214" cx="7.034" cy="7.035" rx="7.034" ry="7.035" transform="translate(238.805 254.7)" fill="#fbbebe"/>
      <path id="Path_2789" data-name="Path 2789" d="M834.879,383.546s-.7,5.979-.352,7.386,1.055,3.517,1.055,3.517l-11.255-2.11s3.166-6.683,2.462-7.738S834.879,383.546,834.879,383.546Z" transform="translate(-584.291 -117.414)" fill="#fbbebe"/>
      <path id="Path_2790" data-name="Path 2790" d="M822.586,403.931l-11.607-2.462-6.682,40.8a15.238,15.238,0,0,1,9.145.352c4.924,1.759,11.607,0,11.607,0l-1.407-38.338Z" transform="translate(-570.942 -129.357)" fill="#02b9b5"/>
      <path id="Path_2791" data-name="Path 2791" d="M789.454,391.783l-4.123,2.176-5.276,1.055-5.628,13.366.7,9.5s-5.979,10.9-6.683,16.883c0,0,.7,9.145,12.31,8.793L788.5,422.1s3.166-16.179,0-20.752C788.5,401.346,790.763,392.772,789.454,391.783Z" transform="translate(-547.054 -122.903)" fill="#2f2e41"/>
      <path id="Path_2792" data-name="Path 2792" d="M768.086,401.081l-1.139-.194-.971.194a11.359,11.359,0,0,0-5.276,2.814c-2.814,2.462-12.31,10.2-13.014,12.31a11.816,11.816,0,0,0,.7,7.738,41.024,41.024,0,0,0,3.166,4.924l1.055,2.462,5.979-1.759s-3.869-7.386-3.517-10.552l7.034-5.628Z" transform="translate(-532.975 -128.971)" fill="#2f2e41"/>
      <path id="Path_2793" data-name="Path 2793" d="M851.267,396.549l5.314,6.565,2.814,3.517-3.517,11.959-1.759,10.2s4.221,16.179.7,21.1c0,0-2.11,2.462-2.814-.352s-.7-16.179-.7-16.179-2.814-17.586-1.407-22.159S849.823,397.37,851.267,396.549Z" transform="translate(-601.068 -126.079)" fill="#2f2e41"/>
      <path id="Path_2794" data-name="Path 2794" d="M869.548,548.369v3.517s-.7,11.607,2.814,10.2,1.055-10.2,1.055-10.2l-.352-3.869Z" transform="translate(-614.388 -227.017)" fill="#fbbebe"/>
      <path id="Path_2795" data-name="Path 2795" d="M817.673,353.512a20.694,20.694,0,0,0,6.273-6.819s4.909,5.455,7.91,5.728.273-6.546.273-6.546l-5.455-1.364-5.182.546-4.091,2.727Z" transform="translate(-579.675 -91.401)" fill="#2f2e41"/>
      <path id="Path_2796" data-name="Path 2796" d="M678.989,318.954l2.814,1.055.352,3.517,1.407,21.455-.7,16.179-5.276.352-1.759-17.938-.7-19.7Z" transform="translate(-423.477 -39.456)" fill="#2f2e41"/>
      <path id="Path_2797" data-name="Path 2797" d="M373.868,148.642h-1.017V120.781a16.126,16.126,0,0,0-16.126-16.126H297.7a16.126,16.126,0,0,0-16.126,16.126V273.632A16.126,16.126,0,0,0,297.7,289.758h59.029a16.126,16.126,0,0,0,16.126-16.126V168.475h1.017Z" transform="translate(-184.48 86.269)" fill="#3f3d56"/>
      <path id="Path_2798" data-name="Path 2798" d="M381,131.808V284.435a12.043,12.043,0,0,1-12.043,12.043H309.641A12.043,12.043,0,0,1,297.6,284.435V131.808a12.043,12.043,0,0,1,12.043-12.043h7.2a5.724,5.724,0,0,0,5.3,7.882h33.817a5.724,5.724,0,0,0,5.3-7.882h7.7A12.043,12.043,0,0,1,381,131.808Z" transform="translate(-196.059 75.353)" fill="#fff"/>
      <path id="Path_2799" data-name="Path 2799" d="M209.04,411.3h-1.247l.416-24.365h.416Z" transform="translate(-80.101 -88.583)" fill="#e6e6e6"/>
      <path id="Path_2800" data-name="Path 2800" d="M379.477,406.055l2.013-3.112a46.651,46.651,0,0,0-2.066-4.836l-1.3,1.052,1.031-1.593c-.982-1.934-1.756-3.152-1.756-3.152a44.709,44.709,0,0,0-5.387,13.1l2.584,3.993-2.86-2.31a18.878,18.878,0,0,0-.157,2.367c0,7.979,2.606,14.448,5.821,14.448s5.821-6.468,5.821-14.448a24.848,24.848,0,0,0-1.332-7.456Z" transform="translate(-249.498 -123.04)" fill="#e6e6e6"/>
      <path id="Path_2801" data-name="Path 2801" d="M326,411.3h-1.247l.416-24.365h.416Z" transform="translate(-164.586 -88.583)" fill="#e6e6e6"/>
      <path id="Path_2802" data-name="Path 2802" d="M496.436,406.055l2.013-3.112a46.644,46.644,0,0,0-2.066-4.836l-1.3,1.052,1.031-1.593c-.982-1.934-1.755-3.152-1.755-3.152a44.709,44.709,0,0,0-5.387,13.1l2.584,3.993-2.86-2.31a18.872,18.872,0,0,0-.157,2.367c0,7.979,2.606,14.448,5.821,14.448s5.821-6.468,5.821-14.448a24.847,24.847,0,0,0-1.332-7.456Z" transform="translate(-333.983 -123.04)" fill="#e6e6e6"/>
      <circle id="Ellipse_215" data-name="Ellipse 215" cx="11.461" cy="11.461" r="11.461" transform="translate(116.529 219.031)" fill="#e6e6e6"/>
      <path id="Path_2803" data-name="Path 2803" d="M259.352,331.209H256.78l.857-50.238h.857Z" transform="translate(-115.486 -12.038)" fill="#e6e6e6"/>
      <path id="Path_2804" data-name="Path 2804" d="M415.385,209.257l4.152-6.416a96.178,96.178,0,0,0-4.259-9.97l-2.685,2.168,2.126-3.285c-2.026-3.988-3.62-6.5-3.62-6.5s-8.326,13.12-11.108,27.012l5.327,8.233-5.9-4.764a38.922,38.922,0,0,0-.324,4.88c0,16.452,5.373,29.79,12,29.79s12-13.337,12-29.79a51.233,51.233,0,0,0-2.746-15.373Z" transform="translate(-269.377 28.047)" fill="#e6e6e6"/>
      <path id="Path_2805" data-name="Path 2805" d="M378.225,547.3V581.45a12.543,12.543,0,0,1-12.542,12.543H303.91a12.543,12.543,0,0,1-12.543-12.542V550.627a59.063,59.063,0,0,1,86.858-3.33Z" transform="translate(-191.557 -220.885)" fill="#3f3d56"/>
      <circle id="Ellipse_216" data-name="Ellipse 216" cx="17.549" cy="17.549" r="17.549" transform="translate(125.754 325.004)" fill="#a8a3fe" opacity="0.25"/>
      <circle id="Ellipse_217" data-name="Ellipse 217" cx="14.131" cy="14.131" r="14.131" transform="translate(129.173 328.422)" fill="#5400cb"/>
      <path id="Path_2806" data-name="Path 2806" d="M245.127,531.383l-4.98-6.4,2.9-2.253,2.358,3.032,7.965-8.408,2.664,2.523Z" transform="translate(-103.472 -182.788)" fill="#fff"/>
    </g>
  </g>
</svg>
