<svg xmlns="http://www.w3.org/2000/svg" width="28" height="28" viewBox="0 0 28 28">
  <g id="Group_538" data-name="Group 538" transform="translate(-145 -4172)">
    <circle id="Ellipse_222" data-name="Ellipse 222" cx="14" cy="14" r="14" transform="translate(145 4172)" fill="#dbdceb"/>
    <g id="Layer" transform="translate(152.709 4179.708)">
      <path id="Path_62" data-name="Path 62" d="M3,11.691A.691.691,0,0,1,3.622,11H14.809a.691.691,0,0,1,0,1.381H3.622A.691.691,0,0,1,3,11.691Z" transform="translate(-3 -5.475)" fill="#474974"/>
      <path id="Path_63" data-name="Path 63" d="M11.691,3a.691.691,0,0,1,.691.622V14.809a.691.691,0,0,1-1.381,0V3.622A.691.691,0,0,1,11.691,3Z" transform="translate(-5.475 -3)" fill="#474974"/>
    </g>
  </g>
</svg>
