<svg xmlns="http://www.w3.org/2000/svg" width="28" height="28" viewBox="0 0 28 28">
  <g id="Group_535" data-name="Group 535" transform="translate(-41 -4172)">
    <circle id="Ellipse_218" data-name="Ellipse 218" cx="14" cy="14" r="14" transform="translate(41 4172)" fill="#dbdceb"/>
    <g id="noun_envelope_743533" transform="translate(29.5 4156.5)">
      <path id="Path_2850" data-name="Path 2850" d="M30.613,23.5H20.651A2.165,2.165,0,0,0,18.5,25.651v7.7A2.165,2.165,0,0,0,20.651,35.5h9.962a2.165,2.165,0,0,0,2.151-2.151v-7.7A2.165,2.165,0,0,0,30.613,23.5Zm-9.962,1.132h9.962a1.029,1.029,0,0,1,.815.408l-5.434,4.211a.611.611,0,0,1-.725,0L19.836,25.04A1.029,1.029,0,0,1,20.651,24.632Zm9.962,9.736H20.651a1.015,1.015,0,0,1-1.019-1.019V26.308l4.936,3.849a1.744,1.744,0,0,0,2.128,0l4.936-3.849v7.042A1.015,1.015,0,0,1,30.613,34.368Z" fill="#474974"/>
    </g>
  </g>
</svg>
