<svg xmlns="http://www.w3.org/2000/svg" width="11.048" height="10.994" viewBox="0 0 11.048 10.994">
  <g id="Group_534" data-name="Group 534" transform="translate(-230.476 -4201.475)">
    <path id="Path_62" data-name="Path 62" d="M3,11.773A.773.773,0,0,1,3.7,11h12.53a.773.773,0,0,1,0,1.547H3.7A.773.773,0,0,1,3,11.773Z" transform="translate(237.281 4191.576) rotate(45)"/>
    <path id="Path_63" data-name="Path 63" d="M11.773,3a.773.773,0,0,1,.773.7v12.53a.773.773,0,0,1-1.547,0V3.7A.773.773,0,0,1,11.773,3Z" transform="translate(234.719 4191.576) rotate(45)"/>
  </g>
</svg>
