<svg xmlns="http://www.w3.org/2000/svg" width="17" height="16" viewBox="0 0 17 16">
  <path id="ic_add_a_photo_24px" d="M2.217,3.286V1H3.7V3.286H5.913V4.81H3.7V7.1H2.217V4.81H0V3.286ZM4.435,7.857V5.571H6.652V3.286h5.174L13.179,4.81h2.343A1.506,1.506,0,0,1,17,6.333v9.143A1.506,1.506,0,0,1,15.522,17H3.7a1.506,1.506,0,0,1-1.478-1.524V7.857Zm5.174,6.857a3.755,3.755,0,0,0,3.7-3.81,3.755,3.755,0,0,0-3.7-3.81,3.755,3.755,0,0,0-3.7,3.81A3.755,3.755,0,0,0,9.609,14.714ZM7.243,10.9A2.366,2.366,0,1,0,9.609,8.467,2.4,2.4,0,0,0,7.243,10.9Z" transform="translate(0 -1)"/>
</svg>
