<svg xmlns="http://www.w3.org/2000/svg" width="28" height="28" viewBox="0 0 28 28">
  <g id="Group_537" data-name="Group 537" transform="translate(-109 -4172)">
    <circle id="Ellipse_220" data-name="Ellipse 220" cx="14" cy="14" r="14" transform="translate(109 4172)" fill="#dbdceb"/>
    <g id="writing-notepad" transform="translate(117.4 4178)">
      <path id="Path_2871" data-name="Path 2871" d="M23.156,5.413H20.794a2.021,2.021,0,0,0-3.538,0H14.895A2.455,2.455,0,0,0,12.44,7.867V17.915a2.455,2.455,0,0,0,2.455,2.455h8.261a2.455,2.455,0,0,0,2.455-2.455V7.867A2.455,2.455,0,0,0,23.156,5.413Zm-5.421,1.4a.7.7,0,0,0,.685-.554.621.621,0,0,1,1.212,0,.7.7,0,0,0,.685.554h.417v.622H17.316V6.815Zm6.473,11.1a1.052,1.052,0,0,1-1.052,1.052H14.895a1.052,1.052,0,0,1-1.052-1.052V7.867a1.052,1.052,0,0,1,1.052-1.052h1.019v.8A1.227,1.227,0,0,0,17.14,8.84H20.91a1.227,1.227,0,0,0,1.227-1.227v-.8h1.019a1.052,1.052,0,0,1,1.052,1.052Z" transform="translate(-13.44 -4.37)" fill="#474974"/>
    </g>
  </g>
</svg>
