<svg xmlns="http://www.w3.org/2000/svg" width="16" height="12" viewBox="0 0 16 12">
  <path id="Path_144" data-name="Path 144" d="M.191,60.614l-.021.022-.021.022c-.011.011-.011.022-.021.032l-.021.022c-.011.011-.011.022-.021.032s-.011.011-.011.022-.011.022-.021.043-.011.011-.011.022-.011.032-.021.043v.011a.1.1,0,0,0-.011.054v.011C.01,60.97,0,60.981,0,61v.151a.1.1,0,0,0,.011.054v.011c0,.022.011.032.011.054v.011c.011.011.011.032.021.043s.011.011.011.022.011.032.021.043.011.011.011.022.011.022.021.032.011.011.021.022.011.022.021.032l.021.022.021.022.011.011,5.935,5.361a.642.642,0,0,0,.907-.054.656.656,0,0,0-.053-.919L2.3,61.738H15.359a.649.649,0,0,0,0-1.3H2.3L6.98,56.215a.656.656,0,0,0,.053-.919.636.636,0,0,0-.907-.054L.2,60.6A.01.01,0,0,1,.191,60.614Z" transform="translate(0.001 -55.077)"/>
</svg>
