<svg xmlns="http://www.w3.org/2000/svg" width="16.785" height="16" viewBox="0 0 16.785 16">
  <g id="Group_530" data-name="Group 530" transform="translate(-119 -4201)">
    <path id="Path_127" data-name="Path 127" d="M2.9,27.333H14.655a.573.573,0,0,0,.255-.059,3.34,3.34,0,0,0,1.875-2.729V15.358a.591.591,0,0,0-.589-.589H14.135V11.922a.591.591,0,0,0-.589-.589H.589A.591.591,0,0,0,0,11.922v12.5a.56.56,0,0,0,.01.128C.039,24.663.658,27.333,2.9,27.333ZM1.178,12.511H12.957V23.6a.589.589,0,0,0,1.178,0V15.947h1.472v8.6a2.069,2.069,0,0,1-1.109,1.61H2.9c-1.158,0-1.629-1.5-1.718-1.816V12.511Z" transform="translate(119 4189.667)"/>
    <path id="Path_128" data-name="Path 128" d="M88.959,102.594a.6.6,0,0,0-.594-.594H85.594a.6.6,0,0,0-.594.594v3.167a.6.6,0,0,0,.594.594h2.771a.6.6,0,0,0,.594-.594Zm-2.771.594h1.584v1.98H86.188Z" transform="translate(36.938 4102.131)"/>
    <path id="Path_129" data-name="Path 129" d="M79.927,352.521h7.721a.594.594,0,0,0,0-1.188H79.927a.594.594,0,1,0,0,1.188Z" transform="translate(42.391 3861.438)"/>
    <path id="Path_130" data-name="Path 130" d="M82.761,270.355h7.523a.594.594,0,1,0,0-1.188H82.761a.594.594,0,1,0,0,1.188Z" transform="translate(39.654 3940.76)"/>
    <path id="Path_131" data-name="Path 131" d="M235.761,106.021h2.277a.594.594,0,0,0,0-1.188h-2.277a.594.594,0,1,0,0,1.188Z" transform="translate(-108.037 4099.404)"/>
    <path id="Path_132" data-name="Path 132" d="M235.761,188.188h2.277a.594.594,0,0,0,0-1.188h-2.277a.594.594,0,1,0,0,1.188Z" transform="translate(-108.037 4020.082)"/>
  </g>
</svg>
